<?xml version="1.0" encoding="UTF-8" standalone="no"?>
<svg
   xmlns:dc="http://purl.org/dc/elements/1.1/"
   xmlns:cc="http://creativecommons.org/ns#"
   xmlns:rdf="http://www.w3.org/1999/02/22-rdf-syntax-ns#"
   xmlns:svg="http://www.w3.org/2000/svg"
   xmlns="http://www.w3.org/2000/svg"
   xmlns:sodipodi="http://sodipodi.sourceforge.net/DTD/sodipodi-0.dtd"
   xmlns:inkscape="http://www.inkscape.org/namespaces/inkscape"
   inkscape:version="1.0 (4035a4f, 2020-05-01)"
   sodipodi:docname="S2I_build_workflow_update.svg"
   version="1.1"
   viewBox="0 0 512.758 789.265"
   height="278.435mm"
   width="180.89mm"
   data-name="Layer 1"
   id="Layer_1">
  <metadata
     id="metadata571">
    <rdf:RDF>
      <cc:Work
         rdf:about="">
        <dc:format>image/svg+xml</dc:format>
        <dc:type
           rdf:resource="http://purl.org/dc/dcmitype/StillImage" />
        <dc:title></dc:title>
        <dc:subject>
          <rdf:Bag>
            <rdf:li>S2I</rdf:li>
            <rdf:li>build</rdf:li>
            <rdf:li>workflow</rdf:li>
          </rdf:Bag>
        </dc:subject>
      </cc:Work>
    </rdf:RDF>
  </metadata>
  <sodipodi:namedview
     inkscape:current-layer="Layer_1"
     inkscape:window-maximized="0"
     inkscape:window-y="25"
     inkscape:window-x="0"
     inkscape:cy="526.17637"
     inkscape:cx="341.83937"
     inkscape:zoom="0.69843501"
     showgrid="false"
     id="namedview569"
     inkscape:window-height="480"
     inkscape:window-width="722"
     inkscape:pageshadow="2"
     inkscape:pageopacity="0"
     guidetolerance="10"
     gridtolerance="10"
     objecttolerance="10"
     borderopacity="1"
     bordercolor="#666666"
     pagecolor="#ffffff" />
  <defs
     id="defs12">
    <style
       id="style10">
      .cls-1 {
        fill: #f0f0f0;
      }

      .cls-1, .cls-3 {
        stroke: #3f9c35;
      }

      .cls-1, .cls-3, .cls-4 {
        stroke-miterlimit: 10;
      }

      .cls-2 {
        fill: #4c4c4c;
      }

      .cls-3 {
        fill: #fff;
        stroke-width: 2px;
      }

      .cls-4 {
        fill: none;
        stroke: #4c4c4c;
      }
    </style>
  </defs>
  <g
     id="g62">
    <rect
       id="rect14"
       height="56.028"
       width="218.277"
       y="548.472"
       x="1"
       class="cls-1" />
    <g
       id="g60">
      <path
         id="path16"
         transform="translate(-44.638 -27.276)"
         d="M82.706,598.136h4.043a2.766,2.766,0,0,1,3.042,2.757,2.582,2.582,0,0,1-1.807,2.5l1.924,3.848H88.179l-1.755-3.64H84.266v3.64h-1.56Zm3.9,4.213a1.458,1.458,0,1,0,0-2.9h-2.34v2.9Z"
         class="cls-2" />
      <path
         id="path18"
         transform="translate(-44.638 -27.276)"
         d="M91.078,605.014v-4.29H92.56v3.861a1.407,1.407,0,0,0,1.43,1.573,1.625,1.625,0,0,0,1.417-.78v-4.654h1.469v6.513H95.407v-1.053a2.351,2.351,0,0,1-2.067,1.157A2.2,2.2,0,0,1,91.078,605.014Z"
         class="cls-2" />
      <path
         id="path20"
         transform="translate(-44.638 -27.276)"
         d="M98.7,600.724h1.469v1.066a2.373,2.373,0,0,1,2.054-1.17,2.2,2.2,0,0,1,2.275,2.327v4.29h-1.482v-3.874a1.4,1.4,0,0,0-1.43-1.56,1.622,1.622,0,0,0-1.417.793v4.641H98.7Z"
         class="cls-2" />
      <path
         id="path22"
         transform="translate(-44.638 -27.276)"
         d="M108.6,606.483l.689-.975a3.785,3.785,0,0,0,2.092.741c.781,0,1.313-.364,1.313-.884,0-.4-.273-.611-.909-.741l-1.144-.2c-1.275-.234-1.886-.819-1.886-1.794,0-1.222,1-2.015,2.522-2.015a4.688,4.688,0,0,1,2.562.779l-.69.976a3.525,3.525,0,0,0-1.962-.624c-.676,0-1.119.286-1.119.753,0,.416.235.6.911.716l1.157.221c1.3.234,1.924.832,1.924,1.807,0,1.2-1.144,2.119-2.665,2.119A4.355,4.355,0,0,1,108.6,606.483Z"
         class="cls-2" />
      <path
         id="path24"
         transform="translate(-44.638 -27.276)"
         d="M115.14,605.365c0-1.17.962-1.911,2.5-1.911a3.828,3.828,0,0,1,1.755.416v-.728c0-.858-.494-1.3-1.5-1.3a4.506,4.506,0,0,0-1.9.507l-.52-1.066a6.429,6.429,0,0,1,2.7-.663c1.7,0,2.665.858,2.665,2.366v4.251h-1.456v-.676a2.63,2.63,0,0,1-1.937.793A2.074,2.074,0,0,1,115.14,605.365Zm2.717.949a2.268,2.268,0,0,0,1.534-.546v-1.053a3.352,3.352,0,0,0-1.5-.312c-.845,0-1.378.351-1.378.936S117.038,606.314,117.857,606.314Z"
         class="cls-2" />
      <path
         id="path26"
         transform="translate(-44.638 -27.276)"
         d="M121.575,600.724h1.6l1.82,4.732,1.807-4.732h1.535l-2.679,6.513h-1.43Z"
         class="cls-2" />
      <path
         id="path28"
         transform="translate(-44.638 -27.276)"
         d="M128.894,603.987a3.216,3.216,0,0,1,3.172-3.367,3.13,3.13,0,0,1,3.081,3.367v.351h-4.81a1.994,1.994,0,0,0,1.95,1.82,2.169,2.169,0,0,0,1.547-.611l.962.871a3.767,3.767,0,0,1-2.574.949A3.305,3.305,0,0,1,128.894,603.987Zm4.862-.559a1.773,1.773,0,0,0-1.7-1.613,1.751,1.751,0,0,0-1.7,1.613Z"
         class="cls-2" />
      <path
         id="path30"
         transform="translate(-44.638 -27.276)"
         d="M139.229,605.365c0-1.17.962-1.911,2.5-1.911a3.828,3.828,0,0,1,1.755.416v-.728c0-.858-.494-1.3-1.495-1.3a4.506,4.506,0,0,0-1.9.507l-.52-1.066a6.429,6.429,0,0,1,2.7-.663c1.7,0,2.665.858,2.665,2.366v4.251H143.48v-.676a2.63,2.63,0,0,1-1.937.793A2.074,2.074,0,0,1,139.229,605.365Zm2.717.949a2.268,2.268,0,0,0,1.534-.546v-1.053a3.352,3.352,0,0,0-1.495-.312c-.845,0-1.378.351-1.378.936S141.127,606.314,141.946,606.314Z"
         class="cls-2" />
      <path
         id="path32"
         transform="translate(-44.638 -27.276)"
         d="M146.717,600.724h1.469v1.4a1.956,1.956,0,0,1,1.794-1.52,1.741,1.741,0,0,1,.637.13v1.286a2.362,2.362,0,0,0-.806-.155,1.774,1.774,0,0,0-1.625,1.079v4.29h-1.469Z"
         class="cls-2" />
      <path
         id="path34"
         transform="translate(-44.638 -27.276)"
         d="M152.632,605.547v-3.653h-1.3v-1.17h1.3V598.93l1.469-.312v2.106h1.807v1.17H154.1v3.328c0,.637.247.884.91.884a2.754,2.754,0,0,0,.884-.156v1.235a4.621,4.621,0,0,1-1.261.182C153.321,607.367,152.632,606.743,152.632,605.547Z"
         class="cls-2" />
      <path
         id="path36"
         transform="translate(-44.638 -27.276)"
         d="M157.025,598.5a.911.911,0,1,1,.911.9A.9.9,0,0,1,157.025,598.5Zm.169,2.223h1.47v6.513h-1.47Z"
         class="cls-2" />
      <path
         id="path38"
         transform="translate(-44.638 -27.276)"
         d="M161.367,601.894h-1.4v-1.17h1.4v-1.118a1.994,1.994,0,0,1,2.249-2.185,3.5,3.5,0,0,1,.975.118v1.248a3.6,3.6,0,0,0-.779-.092c-.677,0-.975.3-.975.936v1.093h1.754v1.17h-1.754v5.343h-1.47Z"
         class="cls-2" />
      <path
         id="path40"
         transform="translate(-44.638 -27.276)"
         d="M165.268,605.365c0-1.17.962-1.911,2.5-1.911a3.831,3.831,0,0,1,1.755.416v-.728c0-.858-.494-1.3-1.5-1.3a4.5,4.5,0,0,0-1.9.507l-.52-1.066a6.429,6.429,0,0,1,2.7-.663c1.7,0,2.665.858,2.665,2.366v4.251h-1.456v-.676a2.63,2.63,0,0,1-1.937.793A2.074,2.074,0,0,1,165.268,605.365Zm2.716.949a2.27,2.27,0,0,0,1.535-.546v-1.053a3.355,3.355,0,0,0-1.5-.312c-.846,0-1.378.351-1.378.936S167.166,606.314,167.984,606.314Z"
         class="cls-2" />
      <path
         id="path42"
         transform="translate(-44.638 -27.276)"
         d="M172.456,603.987a3.286,3.286,0,0,1,3.289-3.367,3.525,3.525,0,0,1,2.6,1.105l-.91.949a2.155,2.155,0,0,0-1.639-.767,2.092,2.092,0,0,0,0,4.16,2.185,2.185,0,0,0,1.639-.754l.91.936a3.525,3.525,0,0,1-2.6,1.105A3.278,3.278,0,0,1,172.456,603.987Z"
         class="cls-2" />
      <path
         id="path44"
         transform="translate(-44.638 -27.276)"
         d="M180.49,605.547v-3.653h-1.3v-1.17h1.3V598.93l1.469-.312v2.106h1.807v1.17h-1.807v3.328c0,.637.247.884.91.884a2.754,2.754,0,0,0,.884-.156v1.235a4.621,4.621,0,0,1-1.261.182C181.179,607.367,180.49,606.743,180.49,605.547Z"
         class="cls-2" />
      <path
         id="path46"
         transform="translate(-44.638 -27.276)"
         d="M184.611,606.483l.689-.975a3.786,3.786,0,0,0,2.093.741c.78,0,1.313-.364,1.313-.884,0-.4-.273-.611-.91-.741l-1.144-.2c-1.274-.234-1.885-.819-1.885-1.794,0-1.222,1-2.015,2.522-2.015a4.687,4.687,0,0,1,2.561.779l-.689.976a3.528,3.528,0,0,0-1.963-.624c-.676,0-1.118.286-1.118.753,0,.416.234.6.91.716l1.157.221c1.3.234,1.924.832,1.924,1.807,0,1.2-1.144,2.119-2.665,2.119A4.357,4.357,0,0,1,184.611,606.483Z"
         class="cls-2" />
      <path
         id="path48"
         transform="translate(-44.638 -27.276)"
         d="M193.763,606.483l.689-.975a3.786,3.786,0,0,0,2.093.741c.78,0,1.313-.364,1.313-.884,0-.4-.273-.611-.91-.741l-1.144-.2c-1.275-.234-1.885-.819-1.885-1.794,0-1.222,1-2.015,2.522-2.015A4.687,4.687,0,0,1,199,601.4l-.689.976a3.528,3.528,0,0,0-1.963-.624c-.676,0-1.118.286-1.118.753,0,.416.234.6.91.716l1.157.221c1.3.234,1.924.832,1.924,1.807,0,1.2-1.144,2.119-2.665,2.119A4.357,4.357,0,0,1,193.763,606.483Z"
         class="cls-2" />
      <path
         id="path50"
         transform="translate(-44.638 -27.276)"
         d="M200.34,603.987a3.286,3.286,0,0,1,3.289-3.367,3.525,3.525,0,0,1,2.6,1.105l-.911.949a2.153,2.153,0,0,0-1.638-.767,2.092,2.092,0,0,0,0,4.16,2.183,2.183,0,0,0,1.638-.754l.911.936a3.525,3.525,0,0,1-2.6,1.105A3.278,3.278,0,0,1,200.34,603.987Z"
         class="cls-2" />
      <path
         id="path52"
         transform="translate(-44.638 -27.276)"
         d="M207.439,600.724h1.468v1.4a1.958,1.958,0,0,1,1.795-1.52,1.736,1.736,0,0,1,.636.13v1.286a2.353,2.353,0,0,0-.806-.155,1.775,1.775,0,0,0-1.625,1.079v4.29h-1.468Z"
         class="cls-2" />
      <path
         id="path54"
         transform="translate(-44.638 -27.276)"
         d="M212.365,598.5a.911.911,0,1,1,.91.9A.9.9,0,0,1,212.365,598.5Zm.169,2.223H214v6.513h-1.47Z"
         class="cls-2" />
      <path
         id="path56"
         transform="translate(-44.638 -27.276)"
         d="M215.823,600.724h1.443v.923a2.517,2.517,0,0,1,2.029-.976,3.334,3.334,0,0,1-.092,6.631,2.451,2.451,0,0,1-1.911-.832v3.484h-1.469Zm4.966,3.263a1.969,1.969,0,0,0-1.937-2.08,1.931,1.931,0,0,0-1.56.728v2.717a2.008,2.008,0,0,0,1.56.728A1.965,1.965,0,0,0,220.789,603.987Z"
         class="cls-2" />
      <path
         id="path58"
         transform="translate(-44.638 -27.276)"
         d="M224.274,605.547v-3.653h-1.3v-1.17h1.3V598.93l1.468-.312v2.106h1.807v1.17h-1.807v3.328c0,.637.247.884.91.884a2.746,2.746,0,0,0,.884-.156v1.235a4.621,4.621,0,0,1-1.261.182C224.963,607.367,224.274,606.743,224.274,605.547Z"
         class="cls-2" />
    </g>
  </g>
  <rect
     id="rect64"
     height="56.028"
     width="218.277"
     y="1"
     x="1"
     class="cls-3" />
  <g
     id="g76">
    <path
       id="path66"
       transform="translate(-44.638 -27.276)"
       d="M139.534,60.828l.845-1.144a4.56,4.56,0,0,0,3.068,1.326c1.2,0,2.029-.611,2.029-1.456,0-.741-.443-1.093-1.652-1.3l-1.676-.285c-1.574-.286-2.341-1.066-2.341-2.314,0-1.652,1.313-2.743,3.354-2.743a6.069,6.069,0,0,1,3.654,1.17l-.793,1.17a4.777,4.777,0,0,0-2.913-1.053c-1.092,0-1.82.558-1.82,1.3,0,.663.416,1,1.4,1.157l1.625.273c1.833.324,2.691,1.131,2.691,2.509,0,1.677-1.482,2.86-3.652,2.86A5.734,5.734,0,0,1,139.534,60.828Z"
       class="cls-2" />
    <path
       id="path68"
       transform="translate(-44.638 -27.276)"
       d="M149.025,60.464V56.811h-1.3v-1.17h1.3V53.847l1.468-.312v2.106H152.3v1.17h-1.807v3.328c0,.637.247.884.91.884a2.746,2.746,0,0,0,.884-.156V62.1a4.621,4.621,0,0,1-1.261.182C149.713,62.284,149.025,61.66,149.025,60.464Z"
       class="cls-2" />
    <path
       id="path70"
       transform="translate(-44.638 -27.276)"
       d="M153.262,60.282c0-1.17.962-1.911,2.5-1.911a3.828,3.828,0,0,1,1.755.416v-.728c0-.858-.494-1.3-1.5-1.3a4.506,4.506,0,0,0-1.9.507L153.6,56.2a6.429,6.429,0,0,1,2.7-.663c1.7,0,2.665.858,2.665,2.366v4.251h-1.456v-.676a2.63,2.63,0,0,1-1.937.793A2.074,2.074,0,0,1,153.262,60.282Zm2.717.949a2.268,2.268,0,0,0,1.534-.546V59.632a3.352,3.352,0,0,0-1.5-.312c-.845,0-1.378.351-1.378.936S155.16,61.231,155.979,61.231Z"
       class="cls-2" />
    <path
       id="path72"
       transform="translate(-44.638 -27.276)"
       d="M160.75,55.641h1.469v1.4a1.957,1.957,0,0,1,1.794-1.521,1.763,1.763,0,0,1,.637.131V56.94a2.362,2.362,0,0,0-.806-.155,1.774,1.774,0,0,0-1.625,1.079v4.29H160.75Z"
       class="cls-2" />
    <path
       id="path74"
       transform="translate(-44.638 -27.276)"
       d="M166.665,60.464V56.811h-1.3v-1.17h1.3V53.847l1.469-.312v2.106h1.807v1.17h-1.807v3.328c0,.637.247.884.91.884a2.754,2.754,0,0,0,.884-.156V62.1a4.621,4.621,0,0,1-1.261.182C167.354,62.284,166.665,61.66,166.665,60.464Z"
       class="cls-2" />
  </g>
  <g
     id="g82">
    <line
       id="line78"
       y2="84.324"
       x2="110.138"
       y1="56.204"
       x1="110.138"
       class="cls-4" />
    <polygon
       id="polygon80"
       points="105.152 82.865 110.138 91.5 115.125 82.865 105.152 82.865"
       class="cls-2" />
  </g>
  <rect
     id="rect84"
     height="56.028"
     width="218.277"
     y="92.217"
     x="1"
     class="cls-1" />
  <g
     id="g140">
    <path
       id="path86"
       transform="translate(-44.638 -27.276)"
       d="M59.709,147.432a4.628,4.628,0,0,1,4.667-4.693,4.737,4.737,0,0,1,3.679,1.625l-1.092.975a3.27,3.27,0,0,0-2.587-1.2,3.3,3.3,0,0,0,.039,6.591,2.716,2.716,0,0,0,2.756-2.379h-2.7v-1.339h4.355v.507a4.414,4.414,0,0,1-4.433,4.6A4.639,4.639,0,0,1,59.709,147.432Z"
       class="cls-2" />
    <path
       id="path88"
       transform="translate(-44.638 -27.276)"
       d="M70.082,148.732a3.216,3.216,0,0,1,3.172-3.367,3.131,3.131,0,0,1,3.082,3.367v.351H71.525a2,2,0,0,0,1.951,1.82,2.171,2.171,0,0,0,1.547-.611l.961.871a3.764,3.764,0,0,1-2.574.949A3.305,3.305,0,0,1,70.082,148.732Zm4.862-.559a1.771,1.771,0,0,0-1.7-1.612,1.751,1.751,0,0,0-1.7,1.612Z"
       class="cls-2" />
    <path
       id="path90"
       transform="translate(-44.638 -27.276)"
       d="M78.442,150.292v-3.653h-1.3v-1.17h1.3v-1.794l1.468-.312v2.106h1.807v1.17H79.91v3.328c0,.637.247.884.91.884a2.746,2.746,0,0,0,.884-.156v1.235a4.621,4.621,0,0,1-1.261.182C79.13,152.112,78.442,151.488,78.442,150.292Z"
       class="cls-2" />
    <path
       id="path92"
       transform="translate(-44.638 -27.276)"
       d="M85.344,150.656l.845-1.144a4.558,4.558,0,0,0,3.068,1.326c1.2,0,2.028-.611,2.028-1.456,0-.741-.442-1.092-1.651-1.3l-1.677-.286c-1.573-.286-2.34-1.066-2.34-2.314,0-1.651,1.313-2.743,3.354-2.743a6.066,6.066,0,0,1,3.653,1.17l-.793,1.17a4.772,4.772,0,0,0-2.912-1.053c-1.092,0-1.82.559-1.82,1.3,0,.663.416,1,1.4,1.157l1.625.273c1.833.325,2.691,1.131,2.691,2.509,0,1.677-1.482,2.86-3.653,2.86A5.731,5.731,0,0,1,85.344,150.656Z"
       class="cls-2" />
    <path
       id="path94"
       transform="translate(-44.638 -27.276)"
       d="M93.976,150.955l3.731-3.9a2.412,2.412,0,0,0,.884-1.742,1.478,1.478,0,0,0-1.651-1.326,3.263,3.263,0,0,0-2.366,1.105l-.806-.975a4.629,4.629,0,0,1,3.2-1.378c1.781,0,3,1.013,3,2.5a3.454,3.454,0,0,1-1.287,2.548l-2.9,2.99,4.355-.013v1.222H93.976Z"
       class="cls-2" />
    <path
       id="path96"
       transform="translate(-44.638 -27.276)"
       d="M101.75,142.881h1.56v9.1h-1.56Z"
       class="cls-2" />
    <path
       id="path98"
       transform="translate(-44.638 -27.276)"
       d="M108.172,142.7l1.469-.247v3.887a2.535,2.535,0,0,1,2-.923,3.334,3.334,0,0,1-.091,6.63,2.474,2.474,0,0,1-1.937-.9v.832h-1.443Zm4.966,6.032a1.969,1.969,0,0,0-1.937-2.08,1.931,1.931,0,0,0-1.56.728V150.1a2.008,2.008,0,0,0,1.56.728A1.965,1.965,0,0,0,113.138,148.732Z"
       class="cls-2" />
    <path
       id="path100"
       transform="translate(-44.638 -27.276)"
       d="M116.063,149.759v-4.29h1.482v3.861a1.407,1.407,0,0,0,1.43,1.573,1.625,1.625,0,0,0,1.417-.78v-4.654h1.469v6.513h-1.469v-1.053a2.351,2.351,0,0,1-2.067,1.157A2.2,2.2,0,0,1,116.063,149.759Z"
       class="cls-2" />
    <path
       id="path102"
       transform="translate(-44.638 -27.276)"
       d="M123.5,143.246a.91.91,0,1,1,.91.9A.9.9,0,0,1,123.5,143.246Zm.169,2.223h1.469v6.513h-1.469Z"
       class="cls-2" />
    <path
       id="path104"
       transform="translate(-44.638 -27.276)"
       d="M126.957,142.661l1.468-.261v9.582h-1.468Z"
       class="cls-2" />
    <path
       id="path106"
       transform="translate(-44.638 -27.276)"
       d="M129.933,148.732a3.156,3.156,0,0,1,3.043-3.315,2.5,2.5,0,0,1,1.9.845v-3.6l1.469-.261v9.582h-1.456v-.858a2.541,2.541,0,0,1-2.015.923A3.116,3.116,0,0,1,129.933,148.732Zm4.941,1.365v-2.743a2.021,2.021,0,0,0-1.548-.7,2.084,2.084,0,0,0,0,4.16A1.915,1.915,0,0,0,134.874,150.1Z"
       class="cls-2" />
    <path
       id="path108"
       transform="translate(-44.638 -27.276)"
       d="M137.863,148.732a3.216,3.216,0,0,1,3.172-3.367,3.13,3.13,0,0,1,3.081,3.367v.351h-4.81a1.994,1.994,0,0,0,1.95,1.82,2.169,2.169,0,0,0,1.547-.611l.962.871a3.767,3.767,0,0,1-2.574.949A3.305,3.305,0,0,1,137.863,148.732Zm4.862-.559a1.772,1.772,0,0,0-1.7-1.612,1.75,1.75,0,0,0-1.7,1.612Z"
       class="cls-2" />
    <path
       id="path110"
       transform="translate(-44.638 -27.276)"
       d="M145.611,145.469h1.469v1.4a1.956,1.956,0,0,1,1.795-1.521,1.736,1.736,0,0,1,.636.13v1.287a2.335,2.335,0,0,0-.806-.156,1.774,1.774,0,0,0-1.625,1.079v4.29h-1.469Z"
       class="cls-2" />
    <path
       id="path112"
       transform="translate(-44.638 -27.276)"
       d="M153.463,143.246a.91.91,0,1,1,.91.9A.9.9,0,0,1,153.463,143.246Zm.169,2.223H155.1v6.513h-1.469Z"
       class="cls-2" />
    <path
       id="path114"
       transform="translate(-44.638 -27.276)"
       d="M156.921,145.469h1.469V146.5a2.231,2.231,0,0,1,1.924-1.131,2.027,2.027,0,0,1,1.924,1.248,2.43,2.43,0,0,1,2.158-1.248,2.154,2.154,0,0,1,2.132,2.353v4.264h-1.469v-3.939a1.318,1.318,0,0,0-1.313-1.5,1.461,1.461,0,0,0-1.3.78c.013.13.026.26.026.39v4.264H160.99v-3.939a1.318,1.318,0,0,0-1.313-1.5,1.467,1.467,0,0,0-1.287.754v4.68h-1.469Z"
       class="cls-2" />
    <path
       id="path116"
       transform="translate(-44.638 -27.276)"
       d="M167.971,150.11c0-1.17.962-1.911,2.5-1.911a3.828,3.828,0,0,1,1.755.416v-.728c0-.858-.494-1.3-1.5-1.3a4.506,4.506,0,0,0-1.9.507l-.52-1.066a6.444,6.444,0,0,1,2.7-.663c1.7,0,2.665.858,2.665,2.366v4.251h-1.456v-.676a2.63,2.63,0,0,1-1.937.793A2.074,2.074,0,0,1,167.971,150.11Zm2.717.949a2.268,2.268,0,0,0,1.534-.546V149.46a3.352,3.352,0,0,0-1.5-.312c-.845,0-1.378.351-1.378.936S169.869,151.059,170.688,151.059Z"
       class="cls-2" />
    <path
       id="path118"
       transform="translate(-44.638 -27.276)"
       d="M175.887,154.192l.508-1.079a4.494,4.494,0,0,0,2.041.546c1.091,0,1.664-.494,1.664-1.443v-1.105a2.545,2.545,0,0,1-2,.91,3.319,3.319,0,0,1,.1-6.6,2.437,2.437,0,0,1,1.91.871v-.819h1.456v6.747c0,1.677-1.091,2.613-3.067,2.613A5.67,5.67,0,0,1,175.887,154.192Zm4.213-4.108v-2.73a2.02,2.02,0,0,0-1.547-.7,2.074,2.074,0,1,0,1.547,3.432Z"
       class="cls-2" />
    <path
       id="path120"
       transform="translate(-44.638 -27.276)"
       d="M183.076,148.732a3.216,3.216,0,0,1,3.173-3.367,3.131,3.131,0,0,1,3.081,3.367v.351h-4.81a1.994,1.994,0,0,0,1.95,1.82,2.171,2.171,0,0,0,1.547-.611l.962.871a3.768,3.768,0,0,1-2.575.949A3.305,3.305,0,0,1,183.076,148.732Zm4.863-.559a1.772,1.772,0,0,0-1.7-1.612,1.751,1.751,0,0,0-1.7,1.612Z"
       class="cls-2" />
    <path
       id="path122"
       transform="translate(-44.638 -27.276)"
       d="M193.45,148.732a3.286,3.286,0,0,1,3.289-3.367,3.522,3.522,0,0,1,2.6,1.1l-.91.949a2.153,2.153,0,0,0-1.638-.767,2.092,2.092,0,0,0,0,4.16,2.183,2.183,0,0,0,1.638-.754l.91.936a3.522,3.522,0,0,1-2.6,1.1A3.278,3.278,0,0,1,193.45,148.732Z"
       class="cls-2" />
    <path
       id="path124"
       transform="translate(-44.638 -27.276)"
       d="M200.054,148.732a3.271,3.271,0,1,1,3.277,3.367A3.245,3.245,0,0,1,200.054,148.732Zm5.1,0a1.846,1.846,0,1,0-1.819,2.119A1.932,1.932,0,0,0,205.15,148.732Z"
       class="cls-2" />
    <path
       id="path126"
       transform="translate(-44.638 -27.276)"
       d="M208.114,145.469h1.469v1.066a2.373,2.373,0,0,1,2.054-1.17,2.2,2.2,0,0,1,2.275,2.327v4.29H212.43v-3.874a1.4,1.4,0,0,0-1.43-1.56,1.622,1.622,0,0,0-1.417.793v4.641h-1.469Z"
       class="cls-2" />
    <path
       id="path128"
       transform="translate(-44.638 -27.276)"
       d="M216.291,150.292v-3.653h-1.3v-1.17h1.3v-1.794l1.469-.312v2.106h1.807v1.17H217.76v3.328c0,.637.247.884.91.884a2.754,2.754,0,0,0,.884-.156v1.235a4.621,4.621,0,0,1-1.261.182C216.98,152.112,216.291,151.488,216.291,150.292Z"
       class="cls-2" />
    <path
       id="path130"
       transform="translate(-44.638 -27.276)"
       d="M220.528,150.11c0-1.17.963-1.911,2.5-1.911a3.828,3.828,0,0,1,1.755.416v-.728c0-.858-.494-1.3-1.5-1.3a4.506,4.506,0,0,0-1.9.507l-.52-1.066a6.444,6.444,0,0,1,2.7-.663c1.7,0,2.665.858,2.665,2.366v4.251H224.78v-.676a2.63,2.63,0,0,1-1.937.793A2.075,2.075,0,0,1,220.528,150.11Zm2.718.949a2.268,2.268,0,0,0,1.534-.546V149.46a3.352,3.352,0,0,0-1.5-.312c-.845,0-1.378.351-1.378.936S222.427,151.059,223.246,151.059Z"
       class="cls-2" />
    <path
       id="path132"
       transform="translate(-44.638 -27.276)"
       d="M227.835,143.246a.91.91,0,1,1,.91.9A.9.9,0,0,1,227.835,143.246Zm.169,2.223h1.469v6.513H228Z"
       class="cls-2" />
    <path
       id="path134"
       transform="translate(-44.638 -27.276)"
       d="M231.293,145.469h1.468v1.066a2.375,2.375,0,0,1,2.055-1.17,2.2,2.2,0,0,1,2.275,2.327v4.29h-1.483v-3.874a1.4,1.4,0,0,0-1.429-1.56,1.625,1.625,0,0,0-1.418.793v4.641h-1.468Z"
       class="cls-2" />
    <path
       id="path136"
       transform="translate(-44.638 -27.276)"
       d="M238.559,148.732a3.216,3.216,0,0,1,3.173-3.367,3.13,3.13,0,0,1,3.081,3.367v.351H240a1.993,1.993,0,0,0,1.949,1.82,2.171,2.171,0,0,0,1.548-.611l.962.871a3.768,3.768,0,0,1-2.575.949A3.305,3.305,0,0,1,238.559,148.732Zm4.862-.559a1.771,1.771,0,0,0-1.7-1.612,1.752,1.752,0,0,0-1.7,1.612Z"
       class="cls-2" />
    <path
       id="path138"
       transform="translate(-44.638 -27.276)"
       d="M246.308,145.469h1.468v1.4a1.958,1.958,0,0,1,1.795-1.521,1.745,1.745,0,0,1,.637.13v1.287a2.34,2.34,0,0,0-.807-.156,1.776,1.776,0,0,0-1.625,1.079v4.29h-1.468Z"
       class="cls-2" />
  </g>
  <g
     id="g146">
    <line
       id="line142"
       y2="176.324"
       x2="110.138"
       y1="148.204"
       x1="110.138"
       class="cls-4" />
    <polygon
       id="polygon144"
       points="105.152 174.865 110.138 183.5 115.125 174.865 105.152 174.865"
       class="cls-2" />
  </g>
  <rect
     id="rect148"
     height="56.028"
     width="218.277"
     y="183.768"
     x="1"
     class="cls-1" />
  <g
     id="g194">
    <path
       id="path150"
       transform="translate(-44.638 -27.276)"
       d="M76.414,238.983a4.628,4.628,0,0,1,4.667-4.693,4.737,4.737,0,0,1,3.679,1.625l-1.092.975a3.27,3.27,0,0,0-2.587-1.2,3.3,3.3,0,0,0,.039,6.591,2.716,2.716,0,0,0,2.756-2.379h-2.7v-1.339h4.355v.507a4.414,4.414,0,0,1-4.433,4.6A4.639,4.639,0,0,1,76.414,238.983Z"
       class="cls-2" />
    <path
       id="path152"
       transform="translate(-44.638 -27.276)"
       d="M86.787,240.283a3.216,3.216,0,0,1,3.173-3.367,3.131,3.131,0,0,1,3.081,3.367v.351h-4.81a1.994,1.994,0,0,0,1.95,1.82,2.171,2.171,0,0,0,1.547-.611l.962.871a3.768,3.768,0,0,1-2.575.949A3.305,3.305,0,0,1,86.787,240.283Zm4.863-.559a1.773,1.773,0,0,0-1.7-1.612,1.751,1.751,0,0,0-1.7,1.612Z"
       class="cls-2" />
    <path
       id="path154"
       transform="translate(-44.638 -27.276)"
       d="M95.147,241.843V238.19h-1.3v-1.17h1.3v-1.794l1.468-.312v2.106h1.807v1.17H96.615v3.328c0,.637.247.884.91.884a2.746,2.746,0,0,0,.884-.156v1.236a4.657,4.657,0,0,1-1.26.181C95.836,243.663,95.147,243.039,95.147,241.843Z"
       class="cls-2" />
    <path
       id="path156"
       transform="translate(-44.638 -27.276)"
       d="M102.049,242.207l.845-1.144a4.558,4.558,0,0,0,3.068,1.326c1.2,0,2.028-.611,2.028-1.456,0-.741-.442-1.092-1.651-1.3l-1.677-.286c-1.573-.286-2.34-1.066-2.34-2.314,0-1.651,1.313-2.743,3.354-2.743a6.066,6.066,0,0,1,3.653,1.17l-.793,1.17a4.772,4.772,0,0,0-2.912-1.053c-1.092,0-1.82.559-1.82,1.3,0,.663.416,1,1.4,1.157l1.625.273c1.833.325,2.691,1.131,2.691,2.509,0,1.677-1.482,2.86-3.653,2.86A5.731,5.731,0,0,1,102.049,242.207Z"
       class="cls-2" />
    <path
       id="path158"
       transform="translate(-44.638 -27.276)"
       d="M110.681,242.506l3.731-3.9a2.412,2.412,0,0,0,.884-1.742,1.478,1.478,0,0,0-1.651-1.326,3.263,3.263,0,0,0-2.366,1.1l-.806-.975a4.629,4.629,0,0,1,3.2-1.378c1.781,0,3,1.014,3,2.5a3.454,3.454,0,0,1-1.287,2.548l-2.9,2.99,4.355-.013v1.222h-6.162Z"
       class="cls-2" />
    <path
       id="path160"
       transform="translate(-44.638 -27.276)"
       d="M118.455,234.433h1.56v9.1h-1.56Z"
       class="cls-2" />
    <path
       id="path162"
       transform="translate(-44.638 -27.276)"
       d="M124.292,242.779l.689-.975a3.786,3.786,0,0,0,2.093.741c.78,0,1.313-.364,1.313-.884,0-.4-.273-.611-.91-.741l-1.144-.195c-1.274-.234-1.885-.819-1.885-1.794,0-1.222,1-2.015,2.522-2.015a4.688,4.688,0,0,1,2.561.78l-.689.975a3.528,3.528,0,0,0-1.963-.624c-.676,0-1.118.286-1.118.754,0,.416.234.6.91.715l1.157.221c1.3.234,1.924.832,1.924,1.807,0,1.2-1.144,2.119-2.665,2.119A4.357,4.357,0,0,1,124.292,242.779Z"
       class="cls-2" />
    <path
       id="path164"
       transform="translate(-44.638 -27.276)"
       d="M130.869,240.283a3.286,3.286,0,0,1,3.289-3.367,3.525,3.525,0,0,1,2.6,1.1l-.91.949a2.153,2.153,0,0,0-1.638-.767,2.091,2.091,0,0,0,0,4.16,2.183,2.183,0,0,0,1.638-.754l.91.936a3.525,3.525,0,0,1-2.6,1.105A3.278,3.278,0,0,1,130.869,240.283Z"
       class="cls-2" />
    <path
       id="path166"
       transform="translate(-44.638 -27.276)"
       d="M137.967,237.02h1.469v1.4a1.956,1.956,0,0,1,1.795-1.521,1.732,1.732,0,0,1,.636.13v1.287a2.334,2.334,0,0,0-.8-.156,1.774,1.774,0,0,0-1.626,1.079v4.29h-1.469Z"
       class="cls-2" />
    <path
       id="path168"
       transform="translate(-44.638 -27.276)"
       d="M142.894,234.8a.91.91,0,1,1,.91.9A.9.9,0,0,1,142.894,234.8Zm.169,2.223h1.469v6.513h-1.469Z"
       class="cls-2" />
    <path
       id="path170"
       transform="translate(-44.638 -27.276)"
       d="M146.353,237.02H147.8v.923a2.514,2.514,0,0,1,2.028-.975,3.334,3.334,0,0,1-.091,6.63,2.453,2.453,0,0,1-1.912-.832v3.485h-1.468Zm4.965,3.263a1.969,1.969,0,0,0-1.937-2.08,1.933,1.933,0,0,0-1.56.728v2.717a2.008,2.008,0,0,0,1.56.728A1.965,1.965,0,0,0,151.318,240.283Z"
       class="cls-2" />
    <path
       id="path172"
       transform="translate(-44.638 -27.276)"
       d="M154.8,241.843V238.19h-1.3v-1.17h1.3v-1.794l1.469-.312v2.106h1.807v1.17h-1.807v3.328c0,.637.247.884.91.884a2.754,2.754,0,0,0,.884-.156v1.236a4.659,4.659,0,0,1-1.261.181C155.491,243.663,154.8,243.039,154.8,241.843Z"
       class="cls-2" />
    <path
       id="path174"
       transform="translate(-44.638 -27.276)"
       d="M158.923,242.779l.689-.975a3.786,3.786,0,0,0,2.093.741c.78,0,1.314-.364,1.314-.884,0-.4-.274-.611-.911-.741l-1.144-.195c-1.273-.234-1.885-.819-1.885-1.794,0-1.222,1-2.015,2.522-2.015a4.688,4.688,0,0,1,2.561.78l-.689.975a3.526,3.526,0,0,0-1.963-.624c-.676,0-1.118.286-1.118.754,0,.416.234.6.91.715l1.158.221c1.3.234,1.923.832,1.923,1.807,0,1.2-1.144,2.119-2.665,2.119A4.357,4.357,0,0,1,158.923,242.779Z"
       class="cls-2" />
    <path
       id="path176"
       transform="translate(-44.638 -27.276)"
       d="M168.321,241.661c0-1.17.963-1.911,2.5-1.911a3.829,3.829,0,0,1,1.756.416v-.728c0-.858-.494-1.3-1.5-1.3a4.506,4.506,0,0,0-1.9.507l-.52-1.066a6.444,6.444,0,0,1,2.7-.663c1.7,0,2.665.858,2.665,2.366v4.251h-1.456v-.676a2.63,2.63,0,0,1-1.937.793A2.075,2.075,0,0,1,168.321,241.661Zm2.718.949a2.268,2.268,0,0,0,1.534-.546v-1.053a3.352,3.352,0,0,0-1.5-.312c-.845,0-1.378.351-1.378.936S170.22,242.61,171.039,242.61Z"
       class="cls-2" />
    <path
       id="path178"
       transform="translate(-44.638 -27.276)"
       d="M175.81,237.02h1.468v1.066a2.375,2.375,0,0,1,2.055-1.17,2.2,2.2,0,0,1,2.275,2.327v4.29h-1.482v-3.874a1.4,1.4,0,0,0-1.431-1.56,1.624,1.624,0,0,0-1.417.793v4.641H175.81Z"
       class="cls-2" />
    <path
       id="path180"
       transform="translate(-44.638 -27.276)"
       d="M183.076,240.283a3.156,3.156,0,0,1,3.043-3.315,2.5,2.5,0,0,1,1.9.845v-3.6l1.468-.26v9.581h-1.456v-.858a2.537,2.537,0,0,1-2.014.923A3.116,3.116,0,0,1,183.076,240.283Zm4.941,1.365v-2.743a2.02,2.02,0,0,0-1.547-.7,2.084,2.084,0,0,0,0,4.16A1.913,1.913,0,0,0,188.017,241.648Z"
       class="cls-2" />
    <path
       id="path182"
       transform="translate(-44.638 -27.276)"
       d="M193.645,242.779l.689-.975a3.786,3.786,0,0,0,2.093.741c.78,0,1.313-.364,1.313-.884,0-.4-.273-.611-.91-.741l-1.144-.195c-1.274-.234-1.885-.819-1.885-1.794,0-1.222,1-2.015,2.522-2.015a4.688,4.688,0,0,1,2.561.78l-.689.975a3.528,3.528,0,0,0-1.963-.624c-.676,0-1.118.286-1.118.754,0,.416.234.6.91.715l1.157.221c1.3.234,1.924.832,1.924,1.807,0,1.2-1.144,2.119-2.665,2.119A4.357,4.357,0,0,1,193.645,242.779Z"
       class="cls-2" />
    <path
       id="path184"
       transform="translate(-44.638 -27.276)"
       d="M200.223,240.283a3.271,3.271,0,1,1,3.276,3.367A3.244,3.244,0,0,1,200.223,240.283Zm5.1,0a1.847,1.847,0,1,0-1.82,2.119A1.932,1.932,0,0,0,205.319,240.283Z"
       class="cls-2" />
    <path
       id="path186"
       transform="translate(-44.638 -27.276)"
       d="M208.231,241.31v-4.29h1.482v3.861a1.407,1.407,0,0,0,1.43,1.573,1.625,1.625,0,0,0,1.417-.78V237.02h1.469v6.513H212.56V242.48a2.351,2.351,0,0,1-2.067,1.157A2.2,2.2,0,0,1,208.231,241.31Z"
       class="cls-2" />
    <path
       id="path188"
       transform="translate(-44.638 -27.276)"
       d="M215.849,237.02h1.468v1.4a1.958,1.958,0,0,1,1.795-1.521,1.745,1.745,0,0,1,.637.13v1.287a2.34,2.34,0,0,0-.807-.156,1.776,1.776,0,0,0-1.625,1.079v4.29h-1.468Z"
       class="cls-2" />
    <path
       id="path190"
       transform="translate(-44.638 -27.276)"
       d="M220.359,240.283a3.286,3.286,0,0,1,3.29-3.367,3.521,3.521,0,0,1,2.6,1.1l-.91.949a2.153,2.153,0,0,0-1.638-.767,2.092,2.092,0,0,0,0,4.16,2.183,2.183,0,0,0,1.638-.754l.91.936a3.521,3.521,0,0,1-2.6,1.105A3.278,3.278,0,0,1,220.359,240.283Z"
       class="cls-2" />
    <path
       id="path192"
       transform="translate(-44.638 -27.276)"
       d="M226.963,240.283a3.216,3.216,0,0,1,3.172-3.367,3.13,3.13,0,0,1,3.081,3.367v.351h-4.81a1.994,1.994,0,0,0,1.951,1.82,2.168,2.168,0,0,0,1.546-.611l.962.871a3.767,3.767,0,0,1-2.574.949A3.305,3.305,0,0,1,226.963,240.283Zm4.862-.559a1.771,1.771,0,0,0-1.7-1.612,1.75,1.75,0,0,0-1.7,1.612Z"
       class="cls-2" />
  </g>
  <g
     id="g200">
    <line
       id="line196"
       y2="268.324"
       x2="110.138"
       y1="240.204"
       x1="110.138"
       class="cls-4" />
    <polygon
       id="polygon198"
       points="105.152 266.865 110.138 275.5 115.125 266.865 105.152 266.865"
       class="cls-2" />
  </g>
  <rect
     id="rect202"
     height="56.028"
     width="218.277"
     y="275.152"
     x="1"
     class="cls-1" />
  <g
     id="g274">
    <path
       id="path204"
       transform="translate(-44.638 -27.276)"
       d="M82.3,316.817h1.56v9.1H82.3Z"
       class="cls-2" />
    <path
       id="path206"
       transform="translate(-44.638 -27.276)"
       d="M85.8,319.4h1.469v1.066a2.373,2.373,0,0,1,2.054-1.17,2.2,2.2,0,0,1,2.275,2.327v4.291H90.116v-3.874a1.4,1.4,0,0,0-1.43-1.561,1.622,1.622,0,0,0-1.417.793v4.642H85.8Z"
       class="cls-2" />
    <path
       id="path208"
       transform="translate(-44.638 -27.276)"
       d="M92.118,328.661v-1.17a2.135,2.135,0,0,0,.52.052c.507,0,.728-.221.728-.715V319.4h1.469v7.489a1.726,1.726,0,0,1-1.924,1.872A2.728,2.728,0,0,1,92.118,328.661Zm1.066-11.48a.917.917,0,1,1,.91.9A.91.91,0,0,1,93.184,317.181Z"
       class="cls-2" />
    <path
       id="path210"
       transform="translate(-44.638 -27.276)"
       d="M96.342,322.668a3.217,3.217,0,0,1,3.173-3.368,3.13,3.13,0,0,1,3.081,3.368v.351h-4.81a1.993,1.993,0,0,0,1.949,1.819,2.169,2.169,0,0,0,1.548-.61l.962.871a3.771,3.771,0,0,1-2.574.948A3.3,3.3,0,0,1,96.342,322.668Zm4.863-.56a1.772,1.772,0,0,0-1.7-1.612,1.752,1.752,0,0,0-1.7,1.612Z"
       class="cls-2" />
    <path
       id="path212"
       transform="translate(-44.638 -27.276)"
       d="M103.817,322.668a3.287,3.287,0,0,1,3.29-3.368,3.521,3.521,0,0,1,2.6,1.1l-.91.95a2.15,2.15,0,0,0-1.638-.768,2.092,2.092,0,0,0,0,4.161,2.187,2.187,0,0,0,1.638-.754l.91.935a3.522,3.522,0,0,1-2.6,1.106A3.28,3.28,0,0,1,103.817,322.668Z"
       class="cls-2" />
    <path
       id="path214"
       transform="translate(-44.638 -27.276)"
       d="M111.852,324.228v-3.654h-1.3V319.4h1.3V317.61l1.469-.312V319.4h1.807v1.17h-1.807V323.9c0,.638.247.885.91.885a2.732,2.732,0,0,0,.884-.157v1.236a4.659,4.659,0,0,1-1.261.181C112.541,326.047,111.852,325.423,111.852,324.228Z"
       class="cls-2" />
    <path
       id="path216"
       transform="translate(-44.638 -27.276)"
       d="M118.768,325.164l.689-.975a3.791,3.791,0,0,0,2.092.74c.781,0,1.313-.364,1.313-.884,0-.4-.273-.61-.909-.741l-1.144-.195c-1.275-.233-1.886-.818-1.886-1.794,0-1.222,1-2.015,2.522-2.015a4.689,4.689,0,0,1,2.562.78l-.69.975a3.533,3.533,0,0,0-1.962-.624c-.676,0-1.119.286-1.119.754,0,.416.235.6.911.715l1.157.222c1.3.234,1.924.832,1.924,1.806,0,1.2-1.144,2.119-2.665,2.119A4.361,4.361,0,0,1,118.768,325.164Z"
       class="cls-2" />
    <path
       id="path218"
       transform="translate(-44.638 -27.276)"
       d="M125.345,322.668a3.286,3.286,0,0,1,3.289-3.368,3.521,3.521,0,0,1,2.6,1.1l-.91.95a2.15,2.15,0,0,0-1.638-.768,2.092,2.092,0,0,0,0,4.161,2.187,2.187,0,0,0,1.638-.754l.91.935a3.522,3.522,0,0,1-2.6,1.106A3.279,3.279,0,0,1,125.345,322.668Z"
       class="cls-2" />
    <path
       id="path220"
       transform="translate(-44.638 -27.276)"
       d="M132.443,319.4h1.469v1.4a1.956,1.956,0,0,1,1.794-1.521,1.722,1.722,0,0,1,.637.131V320.7a2.339,2.339,0,0,0-.806-.156,1.774,1.774,0,0,0-1.625,1.079v4.291h-1.469Z"
       class="cls-2" />
    <path
       id="path222"
       transform="translate(-44.638 -27.276)"
       d="M137.37,317.181a.91.91,0,1,1,.91.9A.9.9,0,0,1,137.37,317.181Zm.169,2.223h1.469v6.514h-1.469Z"
       class="cls-2" />
    <path
       id="path224"
       transform="translate(-44.638 -27.276)"
       d="M140.828,319.4h1.443v.923a2.514,2.514,0,0,1,2.028-.975,3.334,3.334,0,0,1-.091,6.63,2.455,2.455,0,0,1-1.912-.832v3.485h-1.468Zm4.966,3.264a1.97,1.97,0,0,0-1.937-2.081,1.935,1.935,0,0,0-1.561.728v2.717a2.012,2.012,0,0,0,1.561.728A1.965,1.965,0,0,0,145.794,322.668Z"
       class="cls-2" />
    <path
       id="path226"
       transform="translate(-44.638 -27.276)"
       d="M149.277,324.228v-3.654h-1.3V319.4h1.3V317.61l1.47-.312V319.4h1.807v1.17h-1.807V323.9c0,.638.247.885.91.885a2.732,2.732,0,0,0,.884-.157v1.236a4.659,4.659,0,0,1-1.261.181C149.967,326.047,149.277,325.423,149.277,324.228Z"
       class="cls-2" />
    <path
       id="path228"
       transform="translate(-44.638 -27.276)"
       d="M153.4,325.164l.689-.975a3.788,3.788,0,0,0,2.092.74c.781,0,1.313-.364,1.313-.884,0-.4-.273-.61-.909-.741l-1.144-.195c-1.275-.233-1.886-.818-1.886-1.794,0-1.222,1-2.015,2.522-2.015a4.692,4.692,0,0,1,2.562.78l-.69.975a3.534,3.534,0,0,0-1.963-.624c-.675,0-1.118.286-1.118.754,0,.416.235.6.91.715l1.158.222c1.3.234,1.923.832,1.923,1.806,0,1.2-1.144,2.119-2.665,2.119A4.36,4.36,0,0,1,153.4,325.164Z"
       class="cls-2" />
    <path
       id="path230"
       transform="translate(-44.638 -27.276)"
       d="M162.8,324.045c0-1.169.962-1.911,2.5-1.911a3.828,3.828,0,0,1,1.755.416v-.728c0-.858-.494-1.3-1.5-1.3a4.5,4.5,0,0,0-1.9.506l-.52-1.066a6.444,6.444,0,0,1,2.7-.663c1.7,0,2.665.858,2.665,2.367v4.251h-1.456v-.676a2.63,2.63,0,0,1-1.937.793A2.075,2.075,0,0,1,162.8,324.045Zm2.717.95a2.262,2.262,0,0,0,1.534-.547V323.4a3.338,3.338,0,0,0-1.5-.312c-.845,0-1.378.351-1.378.936S164.7,325,165.514,325Z"
       class="cls-2" />
    <path
       id="path232"
       transform="translate(-44.638 -27.276)"
       d="M170.285,319.4h1.469v1.066a2.373,2.373,0,0,1,2.054-1.17,2.2,2.2,0,0,1,2.275,2.327v4.291H174.6v-3.874a1.4,1.4,0,0,0-1.43-1.561,1.622,1.622,0,0,0-1.417.793v4.642h-1.469Z"
       class="cls-2" />
    <path
       id="path234"
       transform="translate(-44.638 -27.276)"
       d="M177.552,322.668a3.155,3.155,0,0,1,3.042-3.316,2.493,2.493,0,0,1,1.9.845v-3.6l1.469-.26v9.582h-1.456v-.858a2.54,2.54,0,0,1-2.015.922A3.115,3.115,0,0,1,177.552,322.668Zm4.94,1.364V321.29a2.018,2.018,0,0,0-1.547-.7,2.085,2.085,0,0,0,0,4.161A1.911,1.911,0,0,0,182.492,324.032Z"
       class="cls-2" />
    <path
       id="path236"
       transform="translate(-44.638 -27.276)"
       d="M188.121,325.164l.689-.975a3.788,3.788,0,0,0,2.092.74c.781,0,1.314-.364,1.314-.884,0-.4-.274-.61-.91-.741l-1.144-.195c-1.274-.233-1.886-.818-1.886-1.794,0-1.222,1-2.015,2.522-2.015a4.686,4.686,0,0,1,2.561.78l-.688.975a3.536,3.536,0,0,0-1.963-.624c-.677,0-1.119.286-1.119.754,0,.416.234.6.911.715l1.157.222c1.3.234,1.924.832,1.924,1.806,0,1.2-1.144,2.119-2.665,2.119A4.361,4.361,0,0,1,188.121,325.164Z"
       class="cls-2" />
    <path
       id="path238"
       transform="translate(-44.638 -27.276)"
       d="M194.7,322.668a3.271,3.271,0,1,1,3.277,3.367A3.245,3.245,0,0,1,194.7,322.668Zm5.1,0a1.847,1.847,0,1,0-1.82,2.119A1.934,1.934,0,0,0,199.8,322.668Z"
       class="cls-2" />
    <path
       id="path240"
       transform="translate(-44.638 -27.276)"
       d="M202.706,323.694V319.4h1.483v3.861a1.406,1.406,0,0,0,1.429,1.573,1.624,1.624,0,0,0,1.417-.779V319.4H208.5v6.514h-1.469v-1.054a2.351,2.351,0,0,1-2.067,1.158A2.2,2.2,0,0,1,202.706,323.694Z"
       class="cls-2" />
    <path
       id="path242"
       transform="translate(-44.638 -27.276)"
       d="M210.324,319.4h1.469v1.4a1.956,1.956,0,0,1,1.795-1.521,1.716,1.716,0,0,1,.636.131V320.7a2.335,2.335,0,0,0-.806-.156,1.774,1.774,0,0,0-1.625,1.079v4.291h-1.469Z"
       class="cls-2" />
    <path
       id="path244"
       transform="translate(-44.638 -27.276)"
       d="M214.835,322.668a3.286,3.286,0,0,1,3.289-3.368,3.521,3.521,0,0,1,2.6,1.1l-.91.95a2.15,2.15,0,0,0-1.638-.768,2.092,2.092,0,0,0,0,4.161,2.187,2.187,0,0,0,1.638-.754l.91.935a3.522,3.522,0,0,1-2.6,1.106A3.279,3.279,0,0,1,214.835,322.668Z"
       class="cls-2" />
    <path
       id="path246"
       transform="translate(-44.638 -27.276)"
       d="M221.439,322.668a3.216,3.216,0,0,1,3.172-3.368,3.13,3.13,0,0,1,3.081,3.368v.351h-4.81a1.994,1.994,0,0,0,1.95,1.819,2.168,2.168,0,0,0,1.547-.61l.962.871a3.771,3.771,0,0,1-2.574.948A3.3,3.3,0,0,1,221.439,322.668Zm4.862-.56a1.772,1.772,0,0,0-1.7-1.612,1.75,1.75,0,0,0-1.7,1.612Z"
       class="cls-2" />
    <path
       id="path248"
       transform="translate(-44.638 -27.276)"
       d="M113.366,332.781a.91.91,0,1,1,.91.9A.9.9,0,0,1,113.366,332.781Zm.169,2.223H115v6.514h-1.469Z"
       class="cls-2" />
    <path
       id="path250"
       transform="translate(-44.638 -27.276)"
       d="M116.824,335h1.469v1.066a2.373,2.373,0,0,1,2.054-1.17,2.2,2.2,0,0,1,2.275,2.328v4.29H121.14v-3.874a1.4,1.4,0,0,0-1.43-1.56,1.622,1.622,0,0,0-1.417.793v4.641h-1.469Z"
       class="cls-2" />
    <path
       id="path252"
       transform="translate(-44.638 -27.276)"
       d="M125,339.828v-3.654h-1.3V335H125v-1.793l1.469-.313V335h1.807v1.17H126.47V339.5c0,.638.247.885.91.885a2.754,2.754,0,0,0,.884-.156v1.234a4.584,4.584,0,0,1-1.261.183C125.69,341.648,125,341.023,125,339.828Z"
       class="cls-2" />
    <path
       id="path254"
       transform="translate(-44.638 -27.276)"
       d="M129.173,338.268a3.271,3.271,0,1,1,3.277,3.367A3.245,3.245,0,0,1,129.173,338.268Zm5.1,0a1.847,1.847,0,1,0-1.82,2.119A1.933,1.933,0,0,0,134.27,338.268Z"
       class="cls-2" />
    <path
       id="path256"
       transform="translate(-44.638 -27.276)"
       d="M139.859,338.268a3.286,3.286,0,0,1,3.29-3.368,3.521,3.521,0,0,1,2.6,1.105l-.91.95a2.149,2.149,0,0,0-1.638-.767,2.092,2.092,0,0,0,0,4.16,2.184,2.184,0,0,0,1.638-.755l.91.937a3.521,3.521,0,0,1-2.6,1.105A3.278,3.278,0,0,1,139.859,338.268Z"
       class="cls-2" />
    <path
       id="path258"
       transform="translate(-44.638 -27.276)"
       d="M146.463,338.268a3.271,3.271,0,1,1,3.276,3.367A3.245,3.245,0,0,1,146.463,338.268Zm5.1,0a1.847,1.847,0,1,0-1.82,2.119A1.933,1.933,0,0,0,151.559,338.268Z"
       class="cls-2" />
    <path
       id="path260"
       transform="translate(-44.638 -27.276)"
       d="M154.523,335h1.469v1.066a2.373,2.373,0,0,1,2.054-1.17,2.2,2.2,0,0,1,2.275,2.328v4.29h-1.482v-3.874a1.4,1.4,0,0,0-1.43-1.56,1.622,1.622,0,0,0-1.417.793v4.641h-1.469Z"
       class="cls-2" />
    <path
       id="path262"
       transform="translate(-44.638 -27.276)"
       d="M162.7,339.828v-3.654h-1.3V335h1.3v-1.793l1.47-.313V335h1.807v1.17h-1.807V339.5c0,.638.247.885.91.885a2.754,2.754,0,0,0,.884-.156v1.234a4.584,4.584,0,0,1-1.261.183C163.389,341.648,162.7,341.023,162.7,339.828Z"
       class="cls-2" />
    <path
       id="path264"
       transform="translate(-44.638 -27.276)"
       d="M166.938,339.646c0-1.17.962-1.912,2.5-1.912a3.831,3.831,0,0,1,1.755.416v-.728c0-.857-.5-1.3-1.5-1.3a4.5,4.5,0,0,0-1.9.506l-.521-1.065a6.45,6.45,0,0,1,2.7-.664c1.7,0,2.665.858,2.665,2.367v4.251h-1.456v-.677a2.63,2.63,0,0,1-1.937.794A2.074,2.074,0,0,1,166.938,339.646Zm2.716.949a2.271,2.271,0,0,0,1.535-.547V339a3.343,3.343,0,0,0-1.5-.312c-.845,0-1.377.351-1.377.936S168.836,340.6,169.654,340.6Z"
       class="cls-2" />
    <path
       id="path266"
       transform="translate(-44.638 -27.276)"
       d="M174.243,332.781a.911.911,0,1,1,.91.9A.9.9,0,0,1,174.243,332.781Zm.169,2.223h1.469v6.514h-1.469Z"
       class="cls-2" />
    <path
       id="path268"
       transform="translate(-44.638 -27.276)"
       d="M177.7,335h1.469v1.066a2.373,2.373,0,0,1,2.054-1.17,2.2,2.2,0,0,1,2.275,2.328v4.29h-1.482v-3.874a1.4,1.4,0,0,0-1.43-1.56,1.622,1.622,0,0,0-1.417.793v4.641H177.7Z"
       class="cls-2" />
    <path
       id="path270"
       transform="translate(-44.638 -27.276)"
       d="M184.968,338.268a3.217,3.217,0,0,1,3.172-3.368,3.13,3.13,0,0,1,3.081,3.368v.351h-4.81a1.994,1.994,0,0,0,1.95,1.82,2.169,2.169,0,0,0,1.547-.611l.962.871a3.767,3.767,0,0,1-2.574.949A3.305,3.305,0,0,1,184.968,338.268Zm4.862-.559a1.772,1.772,0,0,0-1.7-1.613,1.75,1.75,0,0,0-1.7,1.613Z"
       class="cls-2" />
    <path
       id="path272"
       transform="translate(-44.638 -27.276)"
       d="M192.716,335h1.469v1.4a1.956,1.956,0,0,1,1.795-1.521,1.732,1.732,0,0,1,.636.13V336.3a2.334,2.334,0,0,0-.805-.156,1.774,1.774,0,0,0-1.626,1.08v4.29h-1.469Z"
       class="cls-2" />
  </g>
  <g
     id="g280">
    <line
       id="line276"
       y2="359.324"
       x2="110.138"
       y1="331.204"
       x1="110.138"
       class="cls-4" />
    <polygon
       id="polygon278"
       points="105.152 357.865 110.138 366.5 115.125 357.865 105.152 357.865"
       class="cls-2" />
  </g>
  <rect
     id="rect282"
     height="56.028"
     width="218.277"
     y="365.536"
     x="1"
     class="cls-1" />
  <g
     id="g318">
    <path
       id="path284"
       transform="translate(-44.638 -27.276)"
       d="M99.819,415.2h1.56v9.1h-1.56Z"
       class="cls-2" />
    <path
       id="path286"
       transform="translate(-44.638 -27.276)"
       d="M103.316,417.789h1.469v1.066a2.371,2.371,0,0,1,2.054-1.17,2.2,2.2,0,0,1,2.275,2.327v4.29h-1.482v-3.874a1.4,1.4,0,0,0-1.43-1.56,1.622,1.622,0,0,0-1.417.793V424.3h-1.469Z"
       class="cls-2" />
    <path
       id="path288"
       transform="translate(-44.638 -27.276)"
       d="M110.583,421.052a3.286,3.286,0,0,1,3.289-3.367,3.517,3.517,0,0,1,2.6,1.105l-.91.949a2.153,2.153,0,0,0-1.638-.767,2.092,2.092,0,0,0,0,4.16,2.181,2.181,0,0,0,1.638-.755l.91.937a3.521,3.521,0,0,1-2.6,1.1A3.278,3.278,0,0,1,110.583,421.052Z"
       class="cls-2" />
    <path
       id="path290"
       transform="translate(-44.638 -27.276)"
       d="M117.681,417.789h1.469v1.4a1.957,1.957,0,0,1,1.794-1.521,1.783,1.783,0,0,1,.637.13v1.287a2.362,2.362,0,0,0-.806-.155,1.774,1.774,0,0,0-1.625,1.079v4.29h-1.469Z"
       class="cls-2" />
    <path
       id="path292"
       transform="translate(-44.638 -27.276)"
       d="M122.192,421.052a3.216,3.216,0,0,1,3.172-3.367,3.13,3.13,0,0,1,3.081,3.367v.351h-4.81a1.994,1.994,0,0,0,1.95,1.82,2.169,2.169,0,0,0,1.547-.611l.962.871a3.767,3.767,0,0,1-2.574.949A3.305,3.305,0,0,1,122.192,421.052Zm4.862-.559a1.773,1.773,0,0,0-1.7-1.613,1.751,1.751,0,0,0-1.7,1.613Z"
       class="cls-2" />
    <path
       id="path294"
       transform="translate(-44.638 -27.276)"
       d="M129.94,417.789h1.469v1.026a2.232,2.232,0,0,1,1.924-1.13,2.027,2.027,0,0,1,1.924,1.248,2.43,2.43,0,0,1,2.158-1.248,2.154,2.154,0,0,1,2.132,2.353V424.3h-1.469v-3.939a1.318,1.318,0,0,0-1.313-1.5,1.461,1.461,0,0,0-1.3.78c.013.13.026.26.026.39V424.3h-1.482v-3.939a1.318,1.318,0,0,0-1.313-1.5,1.467,1.467,0,0,0-1.287.754v4.68H129.94Z"
       class="cls-2" />
    <path
       id="path296"
       transform="translate(-44.638 -27.276)"
       d="M141.028,421.052a3.216,3.216,0,0,1,3.173-3.367,3.13,3.13,0,0,1,3.081,3.367v.351h-4.81a1.994,1.994,0,0,0,1.95,1.82,2.169,2.169,0,0,0,1.547-.611l.962.871a3.767,3.767,0,0,1-2.574.949A3.306,3.306,0,0,1,141.028,421.052Zm4.863-.559a1.773,1.773,0,0,0-1.7-1.613,1.752,1.752,0,0,0-1.7,1.613Z"
       class="cls-2" />
    <path
       id="path298"
       transform="translate(-44.638 -27.276)"
       d="M148.777,417.789h1.469v1.066a2.371,2.371,0,0,1,2.054-1.17,2.2,2.2,0,0,1,2.275,2.327v4.29h-1.482v-3.874a1.4,1.4,0,0,0-1.43-1.56,1.622,1.622,0,0,0-1.417.793V424.3h-1.469Z"
       class="cls-2" />
    <path
       id="path300"
       transform="translate(-44.638 -27.276)"
       d="M156.953,422.612v-3.653h-1.3v-1.17h1.3V416l1.469-.312v2.106h1.808v1.17h-1.808v3.328c0,.637.248.884.911.884a2.745,2.745,0,0,0,.883-.156v1.235a4.614,4.614,0,0,1-1.26.182C157.643,424.432,156.953,423.808,156.953,422.612Z"
       class="cls-2" />
    <path
       id="path302"
       transform="translate(-44.638 -27.276)"
       d="M161.192,422.43c0-1.17.961-1.911,2.5-1.911a3.814,3.814,0,0,1,1.754.416v-.728c0-.858-.494-1.3-1.5-1.3a4.506,4.506,0,0,0-1.9.507l-.52-1.066a6.444,6.444,0,0,1,2.7-.663c1.7,0,2.666.858,2.666,2.366V424.3h-1.457v-.676a2.63,2.63,0,0,1-1.937.793A2.073,2.073,0,0,1,161.192,422.43Zm2.716.949a2.266,2.266,0,0,0,1.534-.546V421.78a3.352,3.352,0,0,0-1.5-.312c-.845,0-1.378.351-1.378.936S163.089,423.379,163.908,423.379Z"
       class="cls-2" />
    <path
       id="path304"
       transform="translate(-44.638 -27.276)"
       d="M168.679,414.981l1.469-.261V424.3h-1.469Z"
       class="cls-2" />
    <path
       id="path306"
       transform="translate(-44.638 -27.276)"
       d="M174.88,415.02l1.469-.247v3.887a2.533,2.533,0,0,1,2-.924,3.334,3.334,0,0,1-.091,6.631,2.474,2.474,0,0,1-1.937-.9v.832H174.88Zm4.966,6.032a1.969,1.969,0,0,0-1.937-2.08,1.931,1.931,0,0,0-1.56.728v2.717a2.008,2.008,0,0,0,1.56.728A1.965,1.965,0,0,0,179.846,421.052Z"
       class="cls-2" />
    <path
       id="path308"
       transform="translate(-44.638 -27.276)"
       d="M182.771,422.079v-4.29h1.482v3.861a1.407,1.407,0,0,0,1.43,1.573,1.625,1.625,0,0,0,1.417-.78v-4.654h1.469V424.3H187.1v-1.053a2.351,2.351,0,0,1-2.067,1.157A2.2,2.2,0,0,1,182.771,422.079Z"
       class="cls-2" />
    <path
       id="path310"
       transform="translate(-44.638 -27.276)"
       d="M190.207,415.565a.91.91,0,1,1,.91.9A.9.9,0,0,1,190.207,415.565Zm.169,2.224h1.469V424.3h-1.469Z"
       class="cls-2" />
    <path
       id="path312"
       transform="translate(-44.638 -27.276)"
       d="M193.665,414.981l1.468-.261V424.3h-1.468Z"
       class="cls-2" />
    <path
       id="path314"
       transform="translate(-44.638 -27.276)"
       d="M196.642,421.052a3.155,3.155,0,0,1,3.042-3.316,2.494,2.494,0,0,1,1.9.846v-3.6l1.469-.261V424.3H201.6v-.858a2.541,2.541,0,0,1-2.015.923A3.116,3.116,0,0,1,196.642,421.052Zm4.94,1.365v-2.744a2.023,2.023,0,0,0-1.547-.7,2.084,2.084,0,0,0,0,4.16A1.913,1.913,0,0,0,201.582,422.417Z"
       class="cls-2" />
    <path
       id="path316"
       transform="translate(-44.638 -27.276)"
       d="M207.379,419.206l.6-.455c.585-.456.819-.807.819-1.249,0-.663-.637-1.169-1.5-1.169a2.126,2.126,0,0,0-1.86,1.144l-1.13-.559a3.373,3.373,0,0,1,3.055-1.833,2.568,2.568,0,0,1,2.821,2.353c0,.922-.364,1.481-1.508,2.3l-.364.273a1.49,1.49,0,0,0-.7,1.469H206.4A2.261,2.261,0,0,1,207.379,419.206Zm-1.26,4.3a.9.9,0,0,1,.909-.91.91.91,0,0,1,0,1.82A.9.9,0,0,1,206.119,423.509Z"
       class="cls-2" />
  </g>
  <g
     id="g324">
    <polyline
       id="polyline320"
       points="110.138 421.204 110.138 484.5 286.805 484.5"
       class="cls-4" />
    <polygon
       id="polygon322"
       points="285.346 489.486 293.981 484.5 285.346 479.514 285.346 489.486"
       class="cls-2" />
  </g>
  <rect
     id="rect326"
     height="56.028"
     width="218.277"
     y="365.536"
     x="293.981"
     class="cls-1" />
  <g
     id="g334">
    <path
       id="path328"
       transform="translate(-44.638 -27.276)"
       d="M295.118,408.484l-3.335-5.085h1.668l2.422,3.838,2.447-3.838h1.571l-3.334,5.085v3.31h-1.439Z"
       class="cls-2" />
    <path
       id="path330"
       transform="translate(-44.638 -27.276)"
       d="M299.139,408.8a2.966,2.966,0,0,1,2.927-3.106,2.887,2.887,0,0,1,2.842,3.106v.324H300.47a1.84,1.84,0,0,0,1.8,1.679,2,2,0,0,0,1.427-.564l.888.8a3.478,3.478,0,0,1-2.375.876A3.05,3.05,0,0,1,299.139,408.8Zm4.486-.516a1.635,1.635,0,0,0-1.572-1.487,1.615,1.615,0,0,0-1.571,1.487Z"
       class="cls-2" />
    <path
       id="path332"
       transform="translate(-44.638 -27.276)"
       d="M305.811,411.1l.636-.9a3.489,3.489,0,0,0,1.931.684c.719,0,1.211-.336,1.211-.816,0-.371-.252-.563-.839-.683l-1.056-.18c-1.175-.216-1.739-.756-1.739-1.655,0-1.128.924-1.859,2.327-1.859a4.334,4.334,0,0,1,2.363.719l-.636.9a3.254,3.254,0,0,0-1.811-.576c-.624,0-1.031.264-1.031.7,0,.384.215.552.839.659l1.067.2c1.2.215,1.775.767,1.775,1.667a2.206,2.206,0,0,1-2.458,1.955A4.019,4.019,0,0,1,305.811,411.1Z"
       class="cls-2" />
  </g>
  <g
     id="g340">
    <path
       id="path336"
       transform="translate(-44.638 -27.276)"
       d="M295.977,493.4h1.4l4.378,6.105-.024-6.105h1.355v8.395h-1.283l-4.5-6.272.024,6.272h-1.356Z"
       class="cls-2" />
    <path
       id="path338"
       transform="translate(-44.638 -27.276)"
       d="M304.665,498.8a3.018,3.018,0,1,1,3.023,3.106A2.993,2.993,0,0,1,304.665,498.8Zm4.7,0a1.7,1.7,0,1,0-1.679,1.955A1.783,1.783,0,0,0,309.367,498.8Z"
       class="cls-2" />
  </g>
  <g
     id="g390">
    <path
       id="path342"
       transform="translate(-44.638 -27.276)"
       d="M370.409,415.606h4.043a2.766,2.766,0,0,1,3.043,2.756,2.582,2.582,0,0,1-1.807,2.5l1.923,3.848h-1.728l-1.755-3.64H371.97v3.64h-1.561Zm3.9,4.212a1.458,1.458,0,1,0,0-2.9h-2.34v2.9Z"
       class="cls-2" />
    <path
       id="path344"
       transform="translate(-44.638 -27.276)"
       d="M378.34,421.456a3.216,3.216,0,0,1,3.172-3.367,3.13,3.13,0,0,1,3.081,3.367v.351h-4.811a2,2,0,0,0,1.951,1.82,2.165,2.165,0,0,0,1.546-.611l.963.871a3.771,3.771,0,0,1-2.574.949A3.305,3.305,0,0,1,378.34,421.456Zm4.862-.559a1.772,1.772,0,0,0-1.7-1.612,1.749,1.749,0,0,0-1.7,1.612Z"
       class="cls-2" />
    <path
       id="path346"
       transform="translate(-44.638 -27.276)"
       d="M385.567,423.952l.689-.975a3.788,3.788,0,0,0,2.094.741c.779,0,1.312-.364,1.312-.884,0-.4-.272-.611-.91-.741l-1.144-.195c-1.274-.234-1.884-.819-1.884-1.794,0-1.222,1-2.015,2.521-2.015a4.692,4.692,0,0,1,2.562.78l-.69.975a3.528,3.528,0,0,0-1.963-.624c-.675,0-1.118.286-1.118.754,0,.416.235.6.91.715l1.158.221c1.3.234,1.923.832,1.923,1.807,0,1.2-1.143,2.119-2.665,2.119A4.357,4.357,0,0,1,385.567,423.952Z"
       class="cls-2" />
    <path
       id="path348"
       transform="translate(-44.638 -27.276)"
       d="M393.055,423.016v-3.653h-1.3v-1.17h1.3V416.4l1.47-.312v2.106h1.806v1.17h-1.806v3.328c0,.637.246.884.909.884a2.754,2.754,0,0,0,.884-.156v1.235a4.615,4.615,0,0,1-1.261.182C393.744,424.836,393.055,424.212,393.055,423.016Z"
       class="cls-2" />
    <path
       id="path350"
       transform="translate(-44.638 -27.276)"
       d="M397.229,421.456a3.271,3.271,0,1,1,3.275,3.367A3.243,3.243,0,0,1,397.229,421.456Zm5.1,0a1.847,1.847,0,1,0-1.82,2.119A1.932,1.932,0,0,0,402.324,421.456Z"
       class="cls-2" />
    <path
       id="path352"
       transform="translate(-44.638 -27.276)"
       d="M405.288,418.193h1.469v1.4a1.956,1.956,0,0,1,1.794-1.521,1.751,1.751,0,0,1,.638.13v1.287a2.35,2.35,0,0,0-.807-.156,1.774,1.774,0,0,0-1.625,1.079v4.29h-1.469Z"
       class="cls-2" />
    <path
       id="path354"
       transform="translate(-44.638 -27.276)"
       d="M409.8,421.456a3.216,3.216,0,0,1,3.172-3.367,3.13,3.13,0,0,1,3.081,3.367v.351h-4.811a2,2,0,0,0,1.951,1.82,2.165,2.165,0,0,0,1.546-.611l.963.871a3.771,3.771,0,0,1-2.574.949A3.305,3.305,0,0,1,409.8,421.456Zm4.862-.559a1.772,1.772,0,0,0-1.7-1.612,1.749,1.749,0,0,0-1.7,1.612Z"
       class="cls-2" />
    <path
       id="path356"
       transform="translate(-44.638 -27.276)"
       d="M420.134,422.834c0-1.17.962-1.911,2.5-1.911a3.831,3.831,0,0,1,1.755.416v-.728c0-.858-.494-1.3-1.5-1.3a4.51,4.51,0,0,0-1.9.507l-.519-1.066a6.44,6.44,0,0,1,2.7-.663c1.7,0,2.665.858,2.665,2.366v4.251h-1.456v-.676a2.632,2.632,0,0,1-1.938.793A2.074,2.074,0,0,1,420.134,422.834Zm2.717.949a2.27,2.27,0,0,0,1.534-.546v-1.053a3.355,3.355,0,0,0-1.5-.312c-.845,0-1.378.351-1.378.936S422.031,423.783,422.851,423.783Z"
       class="cls-2" />
    <path
       id="path358"
       transform="translate(-44.638 -27.276)"
       d="M427.622,418.193h1.469v1.4a1.956,1.956,0,0,1,1.794-1.521,1.751,1.751,0,0,1,.638.13v1.287a2.35,2.35,0,0,0-.807-.156,1.774,1.774,0,0,0-1.625,1.079v4.29h-1.469Z"
       class="cls-2" />
    <path
       id="path360"
       transform="translate(-44.638 -27.276)"
       d="M432.133,421.456a3.286,3.286,0,0,1,3.289-3.367,3.521,3.521,0,0,1,2.6,1.105l-.911.949a2.151,2.151,0,0,0-1.637-.767,2.092,2.092,0,0,0,0,4.16,2.181,2.181,0,0,0,1.637-.754l.911.936a3.521,3.521,0,0,1-2.6,1.1A3.278,3.278,0,0,1,432.133,421.456Z"
       class="cls-2" />
    <path
       id="path362"
       transform="translate(-44.638 -27.276)"
       d="M439.231,415.385l1.468-.26v4.134a2.374,2.374,0,0,1,2.055-1.17,2.2,2.2,0,0,1,2.274,2.327v4.29h-1.481v-3.874a1.4,1.4,0,0,0-1.431-1.56,1.623,1.623,0,0,0-1.417.793v4.641h-1.468Z"
       class="cls-2" />
    <path
       id="path364"
       transform="translate(-44.638 -27.276)"
       d="M446.614,415.97a.91.91,0,1,1,.91.9A.9.9,0,0,1,446.614,415.97Zm.169,2.223h1.469v6.513h-1.469Z"
       class="cls-2" />
    <path
       id="path366"
       transform="translate(-44.638 -27.276)"
       d="M449.305,418.193h1.6l1.821,4.732,1.806-4.732h1.535l-2.678,6.513h-1.431Z"
       class="cls-2" />
    <path
       id="path368"
       transform="translate(-44.638 -27.276)"
       d="M456.624,421.456a3.216,3.216,0,0,1,3.172-3.367,3.13,3.13,0,0,1,3.081,3.367v.351h-4.81a1.994,1.994,0,0,0,1.95,1.82,2.169,2.169,0,0,0,1.547-.611l.962.871a3.767,3.767,0,0,1-2.574.949A3.305,3.305,0,0,1,456.624,421.456Zm4.862-.559a1.772,1.772,0,0,0-1.7-1.612,1.75,1.75,0,0,0-1.7,1.612Z"
       class="cls-2" />
    <path
       id="path370"
       transform="translate(-44.638 -27.276)"
       d="M464.1,421.456a3.155,3.155,0,0,1,3.042-3.315,2.49,2.49,0,0,1,1.9.845v-3.6l1.47-.26v9.581h-1.456v-.858a2.541,2.541,0,0,1-2.016.923A3.115,3.115,0,0,1,464.1,421.456Zm4.939,1.365v-2.743a2.019,2.019,0,0,0-1.547-.7,2.084,2.084,0,0,0,0,4.16A1.912,1.912,0,0,0,469.039,422.821Z"
       class="cls-2" />
    <path
       id="path372"
       transform="translate(-44.638 -27.276)"
       d="M474.915,422.834c0-1.17.962-1.911,2.5-1.911a3.828,3.828,0,0,1,1.755.416v-.728c0-.858-.494-1.3-1.5-1.3a4.5,4.5,0,0,0-1.9.507l-.52-1.066a6.444,6.444,0,0,1,2.7-.663c1.7,0,2.665.858,2.665,2.366v4.251h-1.456v-.676a2.63,2.63,0,0,1-1.937.793A2.074,2.074,0,0,1,474.915,422.834Zm2.717.949a2.268,2.268,0,0,0,1.534-.546v-1.053a3.352,3.352,0,0,0-1.5-.312c-.845,0-1.378.351-1.378.936S476.813,423.783,477.632,423.783Z"
       class="cls-2" />
    <path
       id="path374"
       transform="translate(-44.638 -27.276)"
       d="M482.4,418.193h1.469v1.4a1.956,1.956,0,0,1,1.794-1.521,1.751,1.751,0,0,1,.638.13v1.287a2.345,2.345,0,0,0-.807-.156,1.774,1.774,0,0,0-1.625,1.079v4.29H482.4Z"
       class="cls-2" />
    <path
       id="path376"
       transform="translate(-44.638 -27.276)"
       d="M488.317,423.016v-3.653h-1.3v-1.17h1.3V416.4l1.47-.312v2.106h1.807v1.17h-1.807v3.328c0,.637.247.884.909.884a2.755,2.755,0,0,0,.885-.156v1.235a4.622,4.622,0,0,1-1.262.182C489.007,424.836,488.317,424.212,488.317,423.016Z"
       class="cls-2" />
    <path
       id="path378"
       transform="translate(-44.638 -27.276)"
       d="M492.712,415.97a.912.912,0,0,1,.909-.91.921.921,0,0,1,.91.91.91.91,0,0,1-.91.9A.9.9,0,0,1,492.712,415.97Zm.169,2.223h1.469v6.513h-1.469Z"
       class="cls-2" />
    <path
       id="path380"
       transform="translate(-44.638 -27.276)"
       d="M497.053,419.363h-1.4v-1.17h1.4v-1.118a1.994,1.994,0,0,1,2.249-2.184,3.511,3.511,0,0,1,.975.117v1.248a3.6,3.6,0,0,0-.78-.091c-.676,0-.975.3-.975.936v1.092h1.755v1.17h-1.755v5.343h-1.469Z"
       class="cls-2" />
    <path
       id="path382"
       transform="translate(-44.638 -27.276)"
       d="M500.953,422.834c0-1.17.962-1.911,2.5-1.911a3.828,3.828,0,0,1,1.755.416v-.728c0-.858-.494-1.3-1.5-1.3a4.51,4.51,0,0,0-1.9.507l-.52-1.066a6.444,6.444,0,0,1,2.7-.663c1.7,0,2.665.858,2.665,2.366v4.251H505.2v-.676a2.628,2.628,0,0,1-1.937.793A2.074,2.074,0,0,1,500.953,422.834Zm2.717.949a2.268,2.268,0,0,0,1.534-.546v-1.053a3.352,3.352,0,0,0-1.5-.312c-.845,0-1.378.351-1.378.936S502.851,423.783,503.67,423.783Z"
       class="cls-2" />
    <path
       id="path384"
       transform="translate(-44.638 -27.276)"
       d="M508.143,421.456a3.285,3.285,0,0,1,3.289-3.367,3.519,3.519,0,0,1,2.6,1.105l-.91.949a2.151,2.151,0,0,0-1.638-.767,2.092,2.092,0,0,0,0,4.16,2.182,2.182,0,0,0,1.638-.754l.91.936a3.519,3.519,0,0,1-2.6,1.1A3.278,3.278,0,0,1,508.143,421.456Z"
       class="cls-2" />
    <path
       id="path386"
       transform="translate(-44.638 -27.276)"
       d="M516.176,423.016v-3.653h-1.3v-1.17h1.3V416.4l1.47-.312v2.106h1.806v1.17h-1.806v3.328c0,.637.246.884.909.884a2.764,2.764,0,0,0,.885-.156v1.235a4.628,4.628,0,0,1-1.262.182C516.865,424.836,516.176,424.212,516.176,423.016Z"
       class="cls-2" />
    <path
       id="path388"
       transform="translate(-44.638 -27.276)"
       d="M520.3,423.952l.688-.975a3.791,3.791,0,0,0,2.094.741c.779,0,1.313-.364,1.313-.884,0-.4-.273-.611-.91-.741l-1.144-.195c-1.274-.234-1.885-.819-1.885-1.794,0-1.222,1-2.015,2.522-2.015a4.688,4.688,0,0,1,2.561.78l-.689.975a3.528,3.528,0,0,0-1.963-.624c-.676,0-1.118.286-1.118.754,0,.416.234.6.91.715l1.157.221c1.3.234,1.924.832,1.924,1.807,0,1.2-1.144,2.119-2.665,2.119A4.355,4.355,0,0,1,520.3,423.952Z"
       class="cls-2" />
  </g>
  <g
     id="g396">
    <line
       id="line392"
       y2="393.55"
       x2="287.389"
       y1="393.55"
       x1="219.131"
       class="cls-4" />
    <polygon
       id="polygon394"
       points="285.93 398.537 294.565 393.55 285.93 388.564 285.93 398.537"
       class="cls-2" />
  </g>
  <g
     id="g442">
    <g
       id="g402">
      <line
         id="line398"
         y2="449.324"
         x2="403.12"
         y1="421.204"
         x1="403.12"
         class="cls-4" />
      <polygon
         id="polygon400"
         points="398.134 447.865 403.12 456.5 408.106 447.865 398.134 447.865"
         class="cls-2" />
    </g>
    <rect
       id="rect404"
       height="56.028"
       width="218.277"
       y="456.042"
       x="293.981"
       class="cls-1" />
    <g
       id="g440">
      <path
         id="path406"
         transform="translate(-44.638 -27.276)"
         d="M388.453,506.707H392.5a2.766,2.766,0,0,1,3.042,2.756,2.582,2.582,0,0,1-1.807,2.5l1.924,3.848h-1.729l-1.755-3.64h-2.158v3.64h-1.56Zm3.9,4.212a1.458,1.458,0,1,0,0-2.9h-2.34v2.9Z"
         class="cls-2" />
      <path
         id="path408"
         transform="translate(-44.638 -27.276)"
         d="M396.824,513.584v-4.29h1.483v3.861a1.406,1.406,0,0,0,1.429,1.573,1.624,1.624,0,0,0,1.417-.78v-4.654h1.47v6.513h-1.47v-1.053a2.348,2.348,0,0,1-2.066,1.157A2.2,2.2,0,0,1,396.824,513.584Z"
         class="cls-2" />
      <path
         id="path410"
         transform="translate(-44.638 -27.276)"
         d="M404.442,509.294h1.469v1.066a2.375,2.375,0,0,1,2.055-1.17,2.2,2.2,0,0,1,2.275,2.327v4.29h-1.482v-3.874a1.4,1.4,0,0,0-1.43-1.56,1.625,1.625,0,0,0-1.418.793v4.641h-1.469Z"
         class="cls-2" />
      <path
         id="path412"
         transform="translate(-44.638 -27.276)"
         d="M414.6,513.935c0-1.17.962-1.911,2.5-1.911a3.831,3.831,0,0,1,1.755.416v-.728c0-.858-.494-1.3-1.5-1.3a4.51,4.51,0,0,0-1.9.507l-.519-1.066a6.44,6.44,0,0,1,2.7-.663c1.7,0,2.665.858,2.665,2.366v4.251h-1.456v-.676a2.633,2.633,0,0,1-1.938.793A2.073,2.073,0,0,1,414.6,513.935Zm2.717.949a2.27,2.27,0,0,0,1.534-.546v-1.053a3.358,3.358,0,0,0-1.5-.312c-.846,0-1.378.351-1.378.936S416.493,514.884,417.313,514.884Z"
         class="cls-2" />
      <path
         id="path414"
         transform="translate(-44.638 -27.276)"
         d="M421.5,515.053l.69-.975a3.78,3.78,0,0,0,2.092.741c.781,0,1.314-.364,1.314-.884,0-.4-.274-.611-.91-.741L423.539,513c-1.273-.234-1.885-.819-1.885-1.794,0-1.222,1-2.015,2.522-2.015a4.688,4.688,0,0,1,2.561.78l-.689.975a3.526,3.526,0,0,0-1.963-.624c-.676,0-1.118.286-1.118.754,0,.416.234.6.91.715l1.157.221c1.3.234,1.924.832,1.924,1.807,0,1.2-1.143,2.119-2.665,2.119A4.359,4.359,0,0,1,421.5,515.053Z"
         class="cls-2" />
      <path
         id="path416"
         transform="translate(-44.638 -27.276)"
         d="M427.725,515.053l.689-.975a3.786,3.786,0,0,0,2.093.741c.78,0,1.313-.364,1.313-.884,0-.4-.273-.611-.91-.741L429.766,513c-1.274-.234-1.885-.819-1.885-1.794,0-1.222,1-2.015,2.521-2.015a4.689,4.689,0,0,1,2.562.78l-.689.975a3.528,3.528,0,0,0-1.963-.624c-.676,0-1.119.286-1.119.754,0,.416.235.6.911.715l1.157.221c1.3.234,1.924.832,1.924,1.807,0,1.2-1.144,2.119-2.665,2.119A4.355,4.355,0,0,1,427.725,515.053Z"
         class="cls-2" />
      <path
         id="path418"
         transform="translate(-44.638 -27.276)"
         d="M434.3,512.557a3.216,3.216,0,0,1,3.172-3.367,3.13,3.13,0,0,1,3.081,3.367v.351h-4.81a1.994,1.994,0,0,0,1.95,1.82,2.169,2.169,0,0,0,1.547-.611l.962.871a3.767,3.767,0,0,1-2.574.949A3.305,3.305,0,0,1,434.3,512.557Zm4.862-.559a1.772,1.772,0,0,0-1.7-1.612,1.75,1.75,0,0,0-1.7,1.612Z"
         class="cls-2" />
      <path
         id="path420"
         transform="translate(-44.638 -27.276)"
         d="M442.051,509.294h1.469v1.027a2.229,2.229,0,0,1,1.923-1.131,2.026,2.026,0,0,1,1.924,1.248,2.432,2.432,0,0,1,2.158-1.248,2.154,2.154,0,0,1,2.133,2.353v4.264h-1.469v-3.939a1.318,1.318,0,0,0-1.313-1.5,1.463,1.463,0,0,0-1.3.78,3.65,3.65,0,0,1,.027.39v4.264h-1.483v-3.939a1.318,1.318,0,0,0-1.312-1.5,1.467,1.467,0,0,0-1.287.754v4.68h-1.469Z"
         class="cls-2" />
      <path
         id="path422"
         transform="translate(-44.638 -27.276)"
         d="M453.439,506.525l1.468-.247v3.887a2.537,2.537,0,0,1,2-.923,3.334,3.334,0,0,1-.092,6.63,2.473,2.473,0,0,1-1.936-.9v.832h-1.443Zm4.966,6.032a1.969,1.969,0,0,0-1.937-2.08,1.933,1.933,0,0,0-1.561.728v2.717a2.012,2.012,0,0,0,1.561.728A1.965,1.965,0,0,0,458.405,512.557Z"
         class="cls-2" />
      <path
         id="path424"
         transform="translate(-44.638 -27.276)"
         d="M461.382,506.486l1.469-.26v9.581h-1.469Z"
         class="cls-2" />
      <path
         id="path426"
         transform="translate(-44.638 -27.276)"
         d="M464.4,518.564v-1.275a2.675,2.675,0,0,0,.572.052,1.052,1.052,0,0,0,1.053-.741l.3-.728-2.457-6.578h1.625l1.664,4.823,1.808-4.823h1.611l-3.12,7.644a2.2,2.2,0,0,1-2.327,1.716A3.124,3.124,0,0,1,464.4,518.564Z"
         class="cls-2" />
      <path
         id="path428"
         transform="translate(-44.638 -27.276)"
         d="M473.979,515.053l.688-.975a3.788,3.788,0,0,0,2.093.741c.78,0,1.313-.364,1.313-.884,0-.4-.273-.611-.91-.741L476.02,513c-1.275-.234-1.886-.819-1.886-1.794,0-1.222,1-2.015,2.522-2.015a4.689,4.689,0,0,1,2.562.78l-.69.975a3.525,3.525,0,0,0-1.962-.624c-.676,0-1.119.286-1.119.754,0,.416.235.6.911.715l1.157.221c1.3.234,1.924.832,1.924,1.807,0,1.2-1.145,2.119-2.665,2.119A4.353,4.353,0,0,1,473.979,515.053Z"
         class="cls-2" />
      <path
         id="path430"
         transform="translate(-44.638 -27.276)"
         d="M480.556,512.557a3.285,3.285,0,0,1,3.289-3.367,3.523,3.523,0,0,1,2.6,1.105l-.91.949a2.153,2.153,0,0,0-1.638-.767,2.092,2.092,0,0,0,0,4.16,2.183,2.183,0,0,0,1.638-.754l.91.936a3.523,3.523,0,0,1-2.6,1.105A3.278,3.278,0,0,1,480.556,512.557Z"
         class="cls-2" />
      <path
         id="path432"
         transform="translate(-44.638 -27.276)"
         d="M487.654,509.294h1.469v1.4a1.956,1.956,0,0,1,1.794-1.521,1.741,1.741,0,0,1,.637.13v1.287a2.335,2.335,0,0,0-.806-.156,1.774,1.774,0,0,0-1.625,1.079v4.29h-1.469Z"
         class="cls-2" />
      <path
         id="path434"
         transform="translate(-44.638 -27.276)"
         d="M492.58,507.071a.91.91,0,1,1,.91.9A.9.9,0,0,1,492.58,507.071Zm.169,2.223h1.47v6.513h-1.47Z"
         class="cls-2" />
      <path
         id="path436"
         transform="translate(-44.638 -27.276)"
         d="M496.039,509.294h1.443v.923a2.514,2.514,0,0,1,2.028-.975,3.334,3.334,0,0,1-.091,6.63,2.45,2.45,0,0,1-1.911-.832v3.484h-1.469Zm4.966,3.263a1.969,1.969,0,0,0-1.938-2.08,1.931,1.931,0,0,0-1.559.728v2.717a2.006,2.006,0,0,0,1.559.728A1.965,1.965,0,0,0,501.005,512.557Z"
         class="cls-2" />
      <path
         id="path438"
         transform="translate(-44.638 -27.276)"
         d="M504.489,514.117v-3.653h-1.3v-1.17h1.3V507.5l1.469-.312v2.106h1.807v1.17h-1.807v3.328c0,.637.247.884.91.884a2.754,2.754,0,0,0,.884-.156v1.235a4.621,4.621,0,0,1-1.261.182C505.178,515.937,504.489,515.313,504.489,514.117Z"
         class="cls-2" />
    </g>
  </g>
  <g
     id="g448">
    <line
       id="line444"
       y2="540.754"
       x2="403.12"
       y1="512.634"
       x1="403.12"
       class="cls-4" />
    <polygon
       id="polygon446"
       points="398.134 539.295 403.12 547.93 408.106 539.295 398.134 539.295"
       class="cls-2" />
  </g>
  <rect
     id="rect450"
     height="56.028"
     width="218.277"
     y="548.472"
     x="293.981"
     class="cls-1" />
  <g
     id="g486">
    <path
       id="path452"
       transform="translate(-44.638 -27.276)"
       d="M392.8,598.137h1.559v9.1H392.8Z"
       class="cls-2" />
    <path
       id="path454"
       transform="translate(-44.638 -27.276)"
       d="M396.3,600.724h1.469v1.066a2.373,2.373,0,0,1,2.053-1.17,2.2,2.2,0,0,1,2.276,2.327v4.29h-1.483v-3.874a1.4,1.4,0,0,0-1.429-1.56,1.622,1.622,0,0,0-1.417.793v4.641H396.3Z"
       class="cls-2" />
    <path
       id="path456"
       transform="translate(-44.638 -27.276)"
       d="M403.565,603.987a3.285,3.285,0,0,1,3.289-3.367,3.523,3.523,0,0,1,2.6,1.105l-.91.949a2.155,2.155,0,0,0-1.639-.767,2.092,2.092,0,0,0,0,4.16,2.185,2.185,0,0,0,1.639-.754l.91.937a3.527,3.527,0,0,1-2.6,1.105A3.278,3.278,0,0,1,403.565,603.987Z"
       class="cls-2" />
    <path
       id="path458"
       transform="translate(-44.638 -27.276)"
       d="M410.662,600.724h1.469v1.4a1.956,1.956,0,0,1,1.8-1.521,1.741,1.741,0,0,1,.637.13v1.287a2.349,2.349,0,0,0-.806-.156,1.774,1.774,0,0,0-1.626,1.079v4.29h-1.469Z"
       class="cls-2" />
    <path
       id="path460"
       transform="translate(-44.638 -27.276)"
       d="M415.173,603.987a3.216,3.216,0,0,1,3.173-3.367,3.13,3.13,0,0,1,3.081,3.367v.351h-4.811a2,2,0,0,0,1.951,1.82,2.166,2.166,0,0,0,1.546-.611l.962.872a3.766,3.766,0,0,1-2.574.948A3.305,3.305,0,0,1,415.173,603.987Zm4.862-.559a1.771,1.771,0,0,0-1.7-1.612,1.751,1.751,0,0,0-1.7,1.612Z"
       class="cls-2" />
    <path
       id="path462"
       transform="translate(-44.638 -27.276)"
       d="M422.922,600.724h1.469v1.027a2.231,2.231,0,0,1,1.924-1.131,2.026,2.026,0,0,1,1.923,1.248,2.433,2.433,0,0,1,2.159-1.248,2.154,2.154,0,0,1,2.132,2.353v4.264H431.06V603.3a1.318,1.318,0,0,0-1.313-1.5,1.464,1.464,0,0,0-1.3.78,3.65,3.65,0,0,1,.027.39v4.264H426.99V603.3a1.318,1.318,0,0,0-1.312-1.5,1.467,1.467,0,0,0-1.287.754v4.68h-1.469Z"
       class="cls-2" />
    <path
       id="path464"
       transform="translate(-44.638 -27.276)"
       d="M434.01,603.987a3.216,3.216,0,0,1,3.173-3.367,3.13,3.13,0,0,1,3.081,3.367v.351h-4.811a2,2,0,0,0,1.95,1.82,2.167,2.167,0,0,0,1.547-.611l.962.872a3.766,3.766,0,0,1-2.574.948A3.305,3.305,0,0,1,434.01,603.987Zm4.862-.559a1.771,1.771,0,0,0-1.7-1.612,1.751,1.751,0,0,0-1.7,1.612Z"
       class="cls-2" />
    <path
       id="path466"
       transform="translate(-44.638 -27.276)"
       d="M441.759,600.724h1.469v1.066a2.373,2.373,0,0,1,2.053-1.17,2.2,2.2,0,0,1,2.276,2.327v4.29h-1.483v-3.874a1.4,1.4,0,0,0-1.429-1.56,1.622,1.622,0,0,0-1.417.793v4.641h-1.469Z"
       class="cls-2" />
    <path
       id="path468"
       transform="translate(-44.638 -27.276)"
       d="M449.936,605.547v-3.653h-1.3v-1.17h1.3V598.93l1.468-.312v2.106h1.807v1.17H451.4v3.328c0,.637.247.885.911.885a2.749,2.749,0,0,0,.883-.157v1.235a4.619,4.619,0,0,1-1.26.182C450.624,607.367,449.936,606.743,449.936,605.547Z"
       class="cls-2" />
    <path
       id="path470"
       transform="translate(-44.638 -27.276)"
       d="M454.173,605.365c0-1.17.962-1.911,2.5-1.911a3.828,3.828,0,0,1,1.755.416v-.728c0-.858-.494-1.3-1.5-1.3a4.506,4.506,0,0,0-1.9.507l-.52-1.066a6.444,6.444,0,0,1,2.7-.663c1.7,0,2.665.858,2.665,2.366v4.251h-1.456v-.676a2.631,2.631,0,0,1-1.937.794A2.075,2.075,0,0,1,454.173,605.365Zm2.717.95a2.267,2.267,0,0,0,1.534-.547v-1.053a3.352,3.352,0,0,0-1.5-.312c-.845,0-1.378.351-1.378.936S456.071,606.315,456.89,606.315Z"
       class="cls-2" />
    <path
       id="path472"
       transform="translate(-44.638 -27.276)"
       d="M461.661,597.916l1.469-.26v9.581h-1.469Z"
       class="cls-2" />
    <path
       id="path474"
       transform="translate(-44.638 -27.276)"
       d="M467.861,597.955l1.469-.247V601.6a2.537,2.537,0,0,1,2-.923,3.334,3.334,0,0,1-.092,6.63,2.473,2.473,0,0,1-1.936-.9v.832h-1.444Zm4.967,6.032a1.969,1.969,0,0,0-1.937-2.08,1.933,1.933,0,0,0-1.561.728v2.717a2.012,2.012,0,0,0,1.561.728A1.965,1.965,0,0,0,472.828,603.987Z"
       class="cls-2" />
    <path
       id="path476"
       transform="translate(-44.638 -27.276)"
       d="M475.752,605.014v-4.29h1.482v3.862a1.407,1.407,0,0,0,1.43,1.572,1.625,1.625,0,0,0,1.417-.78v-4.654h1.47v6.513h-1.47v-1.053a2.348,2.348,0,0,1-2.066,1.157A2.2,2.2,0,0,1,475.752,605.014Z"
       class="cls-2" />
    <path
       id="path478"
       transform="translate(-44.638 -27.276)"
       d="M483.189,598.5a.912.912,0,0,1,.91-.91.921.921,0,0,1,.91.91.91.91,0,0,1-1.82,0Zm.169,2.223h1.468v6.513h-1.468Z"
       class="cls-2" />
    <path
       id="path480"
       transform="translate(-44.638 -27.276)"
       d="M486.647,597.916l1.468-.26v9.581h-1.468Z"
       class="cls-2" />
    <path
       id="path482"
       transform="translate(-44.638 -27.276)"
       d="M489.623,603.987a3.156,3.156,0,0,1,3.043-3.315,2.5,2.5,0,0,1,1.9.845v-3.6l1.469-.26v9.581h-1.456v-.858a2.542,2.542,0,0,1-2.015.923A3.115,3.115,0,0,1,489.623,603.987Zm4.941,1.365v-2.743a2.02,2.02,0,0,0-1.547-.7,2.084,2.084,0,0,0,0,4.16A1.914,1.914,0,0,0,494.564,605.352Z"
       class="cls-2" />
    <path
       id="path484"
       transform="translate(-44.638 -27.276)"
       d="M500.361,602.141l.6-.455c.585-.455.819-.806.819-1.248,0-.663-.636-1.17-1.5-1.17a2.126,2.126,0,0,0-1.859,1.144l-1.131-.559a3.378,3.378,0,0,1,3.056-1.833,2.567,2.567,0,0,1,2.82,2.353c0,.923-.363,1.482-1.508,2.3l-.364.273a1.489,1.489,0,0,0-.7,1.469h-1.209A2.257,2.257,0,0,1,500.361,602.141Zm-1.26,4.3a.9.9,0,0,1,.91-.91.911.911,0,0,1,0,1.821A.9.9,0,0,1,499.1,606.444Z"
       class="cls-2" />
  </g>
  <g
     id="g494">
    <path
       id="path488"
       transform="translate(-44.638 -27.276)"
       d="M295.118,591.484l-3.335-5.085h1.668l2.422,3.838,2.447-3.838h1.571l-3.334,5.085v3.31h-1.439Z"
       class="cls-2" />
    <path
       id="path490"
       transform="translate(-44.638 -27.276)"
       d="M299.139,591.8a2.966,2.966,0,0,1,2.927-3.106,2.887,2.887,0,0,1,2.842,3.106v.324H300.47a1.84,1.84,0,0,0,1.8,1.679,2,2,0,0,0,1.427-.564l.888.8a3.478,3.478,0,0,1-2.375.876A3.05,3.05,0,0,1,299.139,591.8Zm4.486-.516a1.635,1.635,0,0,0-1.572-1.487,1.615,1.615,0,0,0-1.571,1.487Z"
       class="cls-2" />
    <path
       id="path492"
       transform="translate(-44.638 -27.276)"
       d="M305.811,594.1l.636-.9a3.489,3.489,0,0,0,1.931.684c.719,0,1.211-.336,1.211-.816,0-.371-.252-.563-.839-.683l-1.056-.18c-1.175-.216-1.739-.756-1.739-1.655,0-1.128.924-1.859,2.327-1.859a4.334,4.334,0,0,1,2.363.719l-.636.9a3.254,3.254,0,0,0-1.811-.576c-.624,0-1.031.264-1.031.7,0,.384.215.552.839.659l1.067.205c1.2.215,1.775.767,1.775,1.667a2.206,2.206,0,0,1-2.458,1.955A4.019,4.019,0,0,1,305.811,594.1Z"
       class="cls-2" />
  </g>
  <g
     id="g500">
    <line
       id="line496"
       y2="576.55"
       x2="294.565"
       y1="576.55"
       x1="226.307"
       class="cls-4" />
    <polygon
       id="polygon498"
       points="227.766 581.537 219.131 576.55 227.766 571.564 227.766 581.537"
       class="cls-2" />
  </g>
  <g
     id="g506">
    <line
       id="line502"
       y2="632.722"
       x2="110.138"
       y1="605.062"
       x1="110.138"
       class="cls-4" />
    <polygon
       id="polygon504"
       points="105.152 631.263 110.138 639.898 115.125 631.263 105.152 631.263"
       class="cls-2" />
  </g>
  <rect
     id="rect508"
     height="56.028"
     width="218.277"
     y="640.395"
     x="1"
     class="cls-1" />
  <g
     id="g532">
    <path
       id="path510"
       transform="translate(-44.638 -27.276)"
       d="M111.188,693.7A4.636,4.636,0,0,1,115.894,689a4.568,4.568,0,0,1,3.549,1.625l-1.04,1.014a3.188,3.188,0,0,0-2.509-1.235,3.294,3.294,0,0,0,0,6.578,3.188,3.188,0,0,0,2.509-1.235l1.04,1.014a4.572,4.572,0,0,1-3.549,1.625A4.637,4.637,0,0,1,111.188,693.7Z"
       class="cls-2" />
    <path
       id="path512"
       transform="translate(-44.638 -27.276)"
       d="M120.339,695a3.271,3.271,0,1,1,3.277,3.367A3.246,3.246,0,0,1,120.339,695Zm5.1,0a1.847,1.847,0,1,0-1.82,2.119A1.932,1.932,0,0,0,125.436,695Z"
       class="cls-2" />
    <path
       id="path514"
       transform="translate(-44.638 -27.276)"
       d="M128.4,691.732h1.468v1.026a2.235,2.235,0,0,1,1.925-1.131,2.026,2.026,0,0,1,1.923,1.249,2.434,2.434,0,0,1,2.159-1.249,2.155,2.155,0,0,1,2.132,2.354v4.264h-1.469v-3.939a1.318,1.318,0,0,0-1.313-1.5,1.465,1.465,0,0,0-1.3.779,3.687,3.687,0,0,1,.027.391v4.264h-1.483v-3.939a1.317,1.317,0,0,0-1.313-1.5,1.468,1.468,0,0,0-1.287.754v4.68H128.4Z"
       class="cls-2" />
    <path
       id="path516"
       transform="translate(-44.638 -27.276)"
       d="M139.787,691.732h1.469v1.026a2.233,2.233,0,0,1,1.924-1.131,2.028,2.028,0,0,1,1.924,1.249,2.431,2.431,0,0,1,2.158-1.249,2.155,2.155,0,0,1,2.133,2.354v4.264h-1.47v-3.939a1.317,1.317,0,0,0-1.313-1.5,1.462,1.462,0,0,0-1.3.779c.013.131.026.261.026.391v4.264h-1.482v-3.939a1.318,1.318,0,0,0-1.313-1.5,1.467,1.467,0,0,0-1.287.754v4.68h-1.469Z"
       class="cls-2" />
    <path
       id="path518"
       transform="translate(-44.638 -27.276)"
       d="M150.993,689.508a.911.911,0,1,1,.91.9A.9.9,0,0,1,150.993,689.508Zm.169,2.224h1.469v6.513h-1.469Z"
       class="cls-2" />
    <path
       id="path520"
       transform="translate(-44.638 -27.276)"
       d="M155.257,696.555V692.9h-1.3v-1.17h1.3v-1.794l1.469-.312v2.106h1.807v1.17h-1.807v3.328c0,.637.247.884.91.884a2.754,2.754,0,0,0,.884-.156v1.235a4.615,4.615,0,0,1-1.261.182C155.946,698.375,155.257,697.751,155.257,696.555Z"
       class="cls-2" />
    <path
       id="path522"
       transform="translate(-44.638 -27.276)"
       d="M162.576,689.508a.91.91,0,1,1,.91.9A.9.9,0,0,1,162.576,689.508Zm.169,2.224h1.469v6.513h-1.469Z"
       class="cls-2" />
    <path
       id="path524"
       transform="translate(-44.638 -27.276)"
       d="M166.034,691.732H167.5v1.026a2.231,2.231,0,0,1,1.924-1.131,2.028,2.028,0,0,1,1.924,1.249,2.431,2.431,0,0,1,2.158-1.249,2.155,2.155,0,0,1,2.132,2.354v4.264h-1.469v-3.939a1.318,1.318,0,0,0-1.313-1.5,1.462,1.462,0,0,0-1.3.779c.013.131.026.261.026.391v4.264H170.1v-3.939a1.318,1.318,0,0,0-1.313-1.5,1.467,1.467,0,0,0-1.287.754v4.68h-1.469Z"
       class="cls-2" />
    <path
       id="path526"
       transform="translate(-44.638 -27.276)"
       d="M177.084,696.373c0-1.17.962-1.912,2.5-1.912a3.828,3.828,0,0,1,1.755.416v-.727c0-.858-.494-1.3-1.5-1.3a4.491,4.491,0,0,0-1.9.507l-.52-1.066a6.446,6.446,0,0,1,2.7-.664c1.7,0,2.665.859,2.665,2.367v4.251h-1.456v-.676a2.63,2.63,0,0,1-1.937.793A2.074,2.074,0,0,1,177.084,696.373Zm2.717.949a2.268,2.268,0,0,0,1.534-.546v-1.053a3.352,3.352,0,0,0-1.5-.312c-.845,0-1.378.351-1.378.936S178.982,697.322,179.8,697.322Z"
       class="cls-2" />
    <path
       id="path528"
       transform="translate(-44.638 -27.276)"
       d="M185,700.455l.507-1.079a4.5,4.5,0,0,0,2.041.546c1.092,0,1.665-.494,1.665-1.443v-1.105a2.547,2.547,0,0,1-2,.91,3.319,3.319,0,0,1,.1-6.605,2.445,2.445,0,0,1,1.911.871v-.818h1.456v6.747c0,1.677-1.093,2.613-3.069,2.613A5.666,5.666,0,0,1,185,700.455Zm4.213-4.108v-2.73a2.019,2.019,0,0,0-1.548-.7,2.074,2.074,0,1,0,1.548,3.432Z"
       class="cls-2" />
    <path
       id="path530"
       transform="translate(-44.638 -27.276)"
       d="M192.189,695a3.217,3.217,0,0,1,3.172-3.368A3.13,3.13,0,0,1,198.442,695v.351h-4.81a1.994,1.994,0,0,0,1.95,1.82,2.169,2.169,0,0,0,1.547-.611l.962.871a3.767,3.767,0,0,1-2.574.949A3.305,3.305,0,0,1,192.189,695Zm4.862-.559a1.771,1.771,0,0,0-1.7-1.612,1.751,1.751,0,0,0-1.7,1.612Z"
       class="cls-2" />
  </g>
  <g
     id="g538">
    <line
       id="line534"
       y2="724.564"
       x2="110.138"
       y1="696.905"
       x1="110.138"
       class="cls-4" />
    <polygon
       id="polygon536"
       points="105.152 723.105 110.138 731.74 115.125 723.105 105.152 723.105"
       class="cls-2" />
  </g>
  <rect
     id="rect540"
     height="56.028"
     width="218.277"
     y="732.237"
     x="1"
     class="cls-3" />
  <g
     id="g554">
    <path
       id="path542"
       transform="translate(-44.638 -27.276)"
       d="M137.89,783.539h6.539v1.325h-4.98v2.6h3.433v1.3h-3.433v3.874H137.89Z"
       class="cls-2" />
    <path
       id="path544"
       transform="translate(-44.638 -27.276)"
       d="M145.572,783.9a.911.911,0,1,1,.911.9A.9.9,0,0,1,145.572,783.9Zm.169,2.224h1.47v6.512h-1.47Z"
       class="cls-2" />
    <path
       id="path546"
       transform="translate(-44.638 -27.276)"
       d="M149.03,786.126H150.5v1.065a2.373,2.373,0,0,1,2.054-1.17,2.2,2.2,0,0,1,2.275,2.327v4.29h-1.482v-3.874a1.4,1.4,0,0,0-1.43-1.559A1.621,1.621,0,0,0,150.5,788v4.64H149.03Z"
       class="cls-2" />
    <path
       id="path548"
       transform="translate(-44.638 -27.276)"
       d="M156.414,783.9a.91.91,0,1,1,.91.9A.9.9,0,0,1,156.414,783.9Zm.169,2.224h1.469v6.512h-1.469Z"
       class="cls-2" />
    <path
       id="path550"
       transform="translate(-44.638 -27.276)"
       d="M159.287,791.884l.689-.974a3.786,3.786,0,0,0,2.093.741c.78,0,1.313-.364,1.313-.885,0-.4-.273-.61-.91-.741l-1.144-.194c-1.274-.235-1.885-.82-1.885-1.794,0-1.223,1-2.016,2.522-2.016a4.688,4.688,0,0,1,2.561.78l-.689.975a3.528,3.528,0,0,0-1.963-.624c-.676,0-1.118.286-1.118.755,0,.416.234.6.91.715l1.157.22c1.3.235,1.924.832,1.924,1.807,0,1.2-1.144,2.119-2.665,2.119A4.351,4.351,0,0,1,159.287,791.884Z"
       class="cls-2" />
    <path
       id="path552"
       transform="translate(-44.638 -27.276)"
       d="M166.1,783.317l1.469-.26v4.134a2.373,2.373,0,0,1,2.054-1.17,2.2,2.2,0,0,1,2.276,2.327v4.29h-1.483v-3.874a1.4,1.4,0,0,0-1.43-1.559,1.62,1.62,0,0,0-1.417.793v4.64H166.1Z"
       class="cls-2" />
  </g>
  <g
     id="g560">
    <polyline
       id="polyline556"
       points="403.12 604.889 403.12 668.185 226.453 668.185"
       class="cls-4" />
    <polygon
       id="polygon558"
       points="227.912 663.199 219.277 668.185 227.912 673.171 227.912 663.199"
       class="cls-2" />
  </g>
  <g
     id="g566">
    <path
       id="path562"
       transform="translate(-44.638 -27.276)"
       d="M295.977,674.816h1.4l4.378,6.105-.024-6.105h1.355v8.4h-1.283l-4.5-6.272.024,6.272h-1.356Z"
       class="cls-2" />
    <path
       id="path564"
       transform="translate(-44.638 -27.276)"
       d="M304.665,680.213a3.018,3.018,0,1,1,3.023,3.107A2.994,2.994,0,0,1,304.665,680.213Zm4.7,0a1.7,1.7,0,1,0-1.679,1.956A1.782,1.782,0,0,0,309.367,680.213Z"
       class="cls-2" />
  </g>
</svg>
